<svg width="178" height="39" viewBox="0 0 178 39" fill="none" xmlns="http://www.w3.org/2000/svg">
<path d="M27.6082 9.42909C27.6082 10.7803 27.4649 12.0915 27.1934 13.3405C26.925 14.5865 26.5285 15.7699 26.0282 16.8741C24.9348 17.3716 23.7599 17.7638 22.5261 18.0334C21.2667 18.3079 19.9448 18.455 18.5833 18.455C17.3376 18.455 16.1249 18.3323 14.9637 18.1005C14.9603 18.1005 14.9588 18.099 14.957 18.099C14.86 18.0764 14.7633 18.0539 14.6669 18.0334C14.7633 18.0127 14.86 17.9901 14.957 17.9676C14.8569 17.9868 14.7563 18.0075 14.6562 18.0279C15.3663 14.761 16.942 11.9137 19.0688 9.85916C21.12 7.75489 23.9481 6.19995 27.1903 5.49507V5.49659C27.1934 5.50178 27.1934 5.50879 27.1934 5.51397C27.4649 6.76482 27.6082 8.07789 27.6082 9.42909Z" fill="white" fill-opacity="0.52"/>
<path d="M27.1903 5.49197C25.9336 5.22081 24.6178 5.07563 23.2615 5.07563C20.5646 5.07563 18.0284 5.64936 15.8168 6.6565C14.8093 8.86813 14.2356 11.4046 14.2356 14.1015C14.2356 15.4579 14.3811 16.7761 14.6541 18.0303C14.6541 18.0285 14.6556 18.0285 14.6556 18.0285C15.3659 14.7615 16.9416 11.9143 19.0685 9.85972C21.1193 7.75546 23.9474 6.20051 27.1903 5.49563V5.4938V5.49197Z" fill="white"/>
<path d="M37.8779 18.455C36.5267 18.455 35.2152 18.3113 33.9646 18.0401C32.7202 17.7705 31.5367 17.3746 30.4296 16.8732C29.9324 15.7791 29.542 14.6036 29.2705 13.3698C28.996 12.1095 28.8496 10.7873 28.8496 9.42513C28.8496 8.17886 28.9716 6.96552 29.2034 5.80404C29.2034 5.80038 29.2065 5.79885 29.2065 5.79702C29.2278 5.70034 29.2492 5.60334 29.2705 5.50665C29.2919 5.60334 29.3132 5.70034 29.3376 5.79702C29.3163 5.69668 29.298 5.59664 29.2766 5.49629C32.5463 6.20666 35.3921 7.78325 37.4478 9.91101C39.5555 11.9625 41.111 14.7921 41.8156 18.0365H41.8125C41.8064 18.0383 41.8003 18.0383 41.7942 18.0401C40.5437 18.3113 39.2322 18.455 37.8779 18.455Z" fill="white" fill-opacity="0.52"/>
<path d="M41.8185 18.0344C42.09 16.7795 42.2333 15.4622 42.2333 14.1055C42.2333 11.4071 41.6599 8.86972 40.6534 6.65748C38.439 5.64973 35.9013 5.07569 33.205 5.07569C31.8477 5.07569 30.5301 5.22088 29.2734 5.49417C29.2765 5.49417 29.2765 5.49569 29.2765 5.49569C32.5432 6.20606 35.3919 7.78266 37.4477 9.91041C39.5523 11.9622 41.1078 14.7918 41.8155 18.0359C41.8155 18.0344 41.8185 18.0344 41.8185 18.0344Z" fill="white"/>
<path d="M28.8589 28.7237C28.8589 27.3728 29.0022 26.0613 29.2737 24.8122C29.5421 23.5666 29.9386 22.3828 30.4388 21.279C31.5338 20.7812 32.7081 20.3893 33.9403 20.1197C35.2 19.8448 36.5238 19.6981 37.8842 19.6981C39.1286 19.6981 40.3425 19.8207 41.5046 20.0523C41.5077 20.0523 41.5077 20.0541 41.5107 20.0541C41.6083 20.0763 41.7059 20.0989 41.8005 20.1197C41.7059 20.1404 41.6083 20.163 41.5107 20.1852C41.6114 20.1663 41.712 20.1456 41.8127 20.1248C41.102 23.3918 39.5251 26.2394 37.3992 28.2936C35.3465 30.3982 32.519 31.9531 29.2768 32.658V32.6562C29.2737 32.651 29.2737 32.644 29.2737 32.6388C29.0022 31.388 28.8589 30.0749 28.8589 28.7237Z" fill="white" fill-opacity="0.52"/>
<path d="M29.2796 32.6607C30.5332 32.9319 31.8509 33.0771 33.2051 33.0771C35.9014 33.0771 38.4391 32.5034 40.6504 31.4962C41.657 29.2849 42.2304 26.7484 42.2304 24.0515C42.2304 22.6951 42.087 21.3766 41.8125 20.1224C41.8125 20.1242 41.8125 20.1242 41.8125 20.1242C41.1019 23.3912 39.525 26.2388 37.399 28.293C35.3494 30.3976 32.5189 31.9525 29.2766 32.6574V32.6592C29.2797 32.6592 29.2796 32.6607 29.2796 32.6607Z" fill="white"/>
<path d="M18.5884 19.6981C19.9402 19.6981 21.252 19.8415 22.5017 20.1129C23.7479 20.3826 24.932 20.7785 26.0373 21.2796C26.5345 22.374 26.928 23.5492 27.1964 24.7833C27.4709 26.0433 27.6173 27.3658 27.6173 28.7277C27.6173 29.9739 27.4953 31.1876 27.2635 32.349C27.2635 32.3524 27.2635 32.3542 27.2635 32.3561C27.2391 32.4527 27.2177 32.5494 27.1964 32.6461C27.175 32.5494 27.1689 32.5565 27.1903 32.6565C23.9224 31.9461 21.0739 30.3698 19.0187 28.2421C16.9136 26.1903 15.3577 23.3607 14.6528 20.1163H14.6541C14.6595 20.1145 14.6666 20.1145 14.6717 20.1129C15.9232 19.8415 17.2366 19.6981 18.5884 19.6981Z" fill="white" fill-opacity="0.52"/>
<path d="M14.6497 20.1184C14.3783 21.3735 14.2334 22.6906 14.2334 24.0476C14.2334 26.7457 14.8068 29.2831 15.8146 31.4956C18.0271 32.5034 20.5645 33.0771 23.2629 33.0771C24.6196 33.0771 25.9397 32.9319 27.1933 32.6589C27.1902 32.6589 27.1902 32.6571 27.1902 32.6571C23.923 31.9467 21.0745 30.3704 19.0193 28.2427C16.9141 26.1909 15.3583 23.3613 14.6534 20.1169H14.6516C14.6516 20.1184 14.6497 20.1184 14.6497 20.1184Z" fill="white"/>
<path d="M61.9585 12.001C63.8918 12.001 65.4718 12.6076 66.6985 13.821C67.9385 15.021 68.5585 16.7943 68.5585 19.141C68.5585 21.4876 67.9318 23.301 66.6785 24.581C65.4251 25.8476 63.7918 26.481 61.7785 26.481C59.7785 26.481 58.1851 25.8543 56.9985 24.601C55.8118 23.3476 55.2185 21.5676 55.2185 19.261C55.2185 16.941 55.8585 15.1543 57.1385 13.901C58.4185 12.6343 60.0251 12.001 61.9585 12.001ZM56.9785 19.201C56.9785 21.241 57.4318 22.8076 58.3385 23.901C59.2451 24.981 60.4251 25.521 61.8785 25.521C63.3451 25.521 64.5318 24.981 65.4385 23.901C66.3451 22.8076 66.7985 21.261 66.7985 19.261C66.7985 17.2476 66.3451 15.7143 65.4385 14.661C64.5318 13.6076 63.3451 13.081 61.8785 13.081C60.9185 13.081 59.9585 13.241 58.9985 13.561C58.3718 14.0276 57.8785 14.7676 57.5185 15.781C57.1585 16.781 56.9785 17.921 56.9785 19.201ZM73.2399 22.121L73.0999 25.341L74.6199 25.621C74.6199 26.0343 74.5065 26.241 74.2799 26.241L72.4799 26.121L70.8199 26.241C70.5799 26.241 70.4599 26.0343 70.4599 25.621L71.7399 25.341V17.361L70.4599 17.081C70.4599 16.6676 70.5799 16.461 70.8199 16.461C71.0199 16.461 71.5732 16.481 72.4799 16.521L74.5199 16.461C75.4932 16.461 76.2665 16.721 76.8399 17.241C77.4132 17.761 77.6999 18.4076 77.6999 19.181C77.6999 19.661 77.5399 20.1276 77.2199 20.581C76.8999 21.0343 76.4332 21.381 75.8199 21.621L78.7599 26.361L77.7399 26.661L74.4199 21.941L73.2399 22.121ZM73.2799 21.161L73.9999 21.181C74.7465 21.1543 75.3265 20.941 75.7399 20.541C76.1665 20.141 76.3799 19.6876 76.3799 19.181C76.3799 18.661 76.1999 18.2143 75.8399 17.841C75.4799 17.4676 74.9599 17.2743 74.2799 17.261L73.0999 17.361L73.2799 21.161ZM88.185 23.361L88.065 25.481C87.1984 26.0943 86.0584 26.401 84.645 26.401C83.2317 26.401 82.0784 25.9676 81.185 25.101C80.2917 24.221 79.845 22.9743 79.845 21.361C79.845 19.7343 80.325 18.4876 81.285 17.621C82.245 16.741 83.465 16.301 84.945 16.301C86.145 16.301 87.1984 16.5943 88.105 17.181L87.685 19.381C87.1117 19.381 86.825 19.2743 86.825 19.061V17.621C86.265 17.4343 85.6317 17.341 84.925 17.341C84.2184 17.341 83.5184 17.441 82.825 17.641C82.3984 17.961 82.0517 18.4543 81.785 19.121C81.5184 19.7743 81.385 20.5076 81.385 21.321C81.385 22.6543 81.705 23.6743 82.345 24.381C82.9984 25.0876 83.7984 25.441 84.745 25.441C85.6917 25.441 86.4384 25.2876 86.985 24.981L87.325 23.621C87.3917 23.4476 87.6784 23.361 88.185 23.361ZM98.0064 17.361L96.6664 17.081C96.6664 16.6676 96.7864 16.461 97.0264 16.461C97.2264 16.461 97.7798 16.481 98.6864 16.521L100.306 16.461C100.533 16.461 100.646 16.661 100.646 17.061L99.3664 17.361V25.341L100.646 25.621C100.646 26.0343 100.533 26.241 100.306 26.241L98.6864 26.121L97.0264 26.241C96.7864 26.241 96.6664 26.0343 96.6664 25.621L98.0064 25.341L97.8464 21.601L92.9664 21.801L92.8264 25.341L94.1664 25.621C94.1664 26.0343 94.0531 26.241 93.8264 26.241L92.2064 26.121L90.5464 26.241C90.3064 26.241 90.1864 26.0343 90.1864 25.621L91.4664 25.341V17.361L90.1864 17.081C90.1864 16.6676 90.3064 16.461 90.5464 16.461C90.7464 16.461 91.2998 16.481 92.2064 16.521L93.8264 16.461C94.0531 16.461 94.1664 16.661 94.1664 17.061L92.8264 17.361L92.9864 20.761H97.8464L98.0064 17.361ZM104.123 17.361L102.843 17.081C102.843 16.6676 102.963 16.461 103.203 16.461C103.403 16.461 103.956 16.481 104.863 16.521L106.483 16.461C106.709 16.461 106.823 16.661 106.823 17.061L105.543 17.361V25.341L106.823 25.621C106.823 26.0343 106.709 26.241 106.483 26.241L104.863 26.121L103.203 26.241C102.963 26.241 102.843 26.0343 102.843 25.621L104.123 25.341V17.361ZM111.035 16.521C112.275 16.401 113.121 16.3276 113.575 16.301C115.041 16.301 116.275 16.6476 117.275 17.341C117.795 17.701 118.201 18.2076 118.495 18.861C118.801 19.5143 118.955 20.2876 118.955 21.181C118.955 22.8743 118.488 24.1543 117.555 25.021C116.621 25.8876 115.368 26.321 113.795 26.321L111.055 26.121L109.375 26.241C109.135 26.241 109.015 26.0343 109.015 25.621L110.295 25.341V17.361L109.015 17.081C109.015 16.6676 109.135 16.461 109.375 16.461C109.575 16.461 110.128 16.481 111.035 16.521ZM111.835 21.221L111.635 25.241C112.341 25.3743 113.161 25.441 114.095 25.441C115.028 25.441 115.808 25.0943 116.435 24.401C117.075 23.7076 117.395 22.681 117.395 21.321C117.395 18.601 116.135 17.241 113.615 17.241C113.028 17.241 112.368 17.3076 111.635 17.441L111.835 21.221ZM128.862 14.021C128.596 14.4343 128.462 14.941 128.462 15.541C128.462 16.1276 128.722 16.8076 129.242 17.581L132.582 22.721C133.276 21.6676 133.642 20.6543 133.682 19.681L132.322 18.981C132.256 18.941 132.222 18.881 132.222 18.801C132.222 18.7076 132.236 18.6076 132.262 18.501C132.356 18.2343 132.416 18.101 132.442 18.101C132.509 18.101 132.922 18.221 133.682 18.461C134.456 18.6876 134.909 18.8343 135.042 18.901C134.856 20.541 134.236 22.1143 133.182 23.621L134.182 25.141L135.862 25.621C135.862 26.0343 135.756 26.241 135.542 26.241H132.982L132.082 24.881C130.976 25.961 129.769 26.501 128.462 26.501C127.156 26.501 126.149 26.181 125.442 25.541C124.749 24.901 124.402 24.141 124.402 23.261C124.402 22.381 124.649 21.5476 125.142 20.761C125.649 19.9743 126.369 19.3143 127.302 18.781L127.902 18.441C127.249 17.3743 126.922 16.4743 126.922 15.741C126.922 14.6476 127.242 13.8543 127.882 13.361C128.536 12.8676 129.429 12.621 130.562 12.621C131.709 12.621 132.862 12.8876 134.022 13.421L133.502 16.401C132.902 16.401 132.602 16.3076 132.602 16.121V14.041C131.922 13.801 131.262 13.681 130.622 13.681C129.982 13.681 129.396 13.7943 128.862 14.021ZM128.562 25.341C129.616 25.341 130.602 24.901 131.522 24.021L128.382 19.181L127.642 19.661C127.082 20.021 126.656 20.4676 126.362 21.001C126.069 21.5343 125.922 22.1276 125.922 22.781C125.922 23.4343 126.156 24.0276 126.622 24.561C127.102 25.081 127.749 25.341 128.562 25.341ZM152.411 22.361L152.251 25.221C151.131 26.061 149.631 26.481 147.751 26.481C145.871 26.481 144.337 25.8543 143.151 24.601C141.964 23.3476 141.371 21.5676 141.371 19.261C141.371 16.941 142.011 15.1543 143.291 13.901C144.571 12.6343 146.191 12.001 148.151 12.001C149.711 12.001 151.084 12.401 152.271 13.201L151.751 16.181C151.151 16.181 150.851 16.0876 150.851 15.901V13.681C150.011 13.3476 149.091 13.181 148.091 13.181C147.091 13.181 146.111 13.341 145.151 13.661C144.524 14.1276 144.031 14.8543 143.671 15.841C143.311 16.8276 143.131 17.9476 143.131 19.201C143.131 21.2143 143.584 22.7543 144.491 23.821C145.397 24.8876 146.577 25.421 148.031 25.421C149.231 25.421 150.237 25.1743 151.051 24.681L151.511 22.641C151.564 22.4543 151.864 22.361 152.411 22.361ZM159.163 16.301C160.616 16.301 161.809 16.721 162.743 17.561C163.676 18.401 164.143 19.641 164.143 21.281C164.143 22.921 163.669 24.1876 162.723 25.081C161.789 25.961 160.569 26.401 159.063 26.401C157.556 26.401 156.349 25.9676 155.443 25.101C154.549 24.221 154.103 22.9743 154.103 21.361C154.103 19.7343 154.583 18.4876 155.543 17.621C156.503 16.741 157.709 16.301 159.163 16.301ZM155.663 21.321C155.663 22.681 155.983 23.721 156.623 24.441C157.263 25.161 158.096 25.521 159.123 25.521C160.149 25.521 160.983 25.161 161.623 24.441C162.263 23.721 162.583 22.6943 162.583 21.361C162.583 20.0276 162.263 19.0143 161.623 18.321C160.983 17.6143 160.149 17.261 159.123 17.261C158.456 17.261 157.776 17.361 157.083 17.561C156.656 17.881 156.309 18.381 156.043 19.061C155.789 19.7276 155.663 20.481 155.663 21.321Z" fill="white"/>
</svg>
