<svg width="178" height="39" viewBox="0 0 178 39" fill="none" xmlns="http://www.w3.org/2000/svg">
<path d="M8.58885 9.093C7.74695 12.7652 4.82659 15.6641 1.12656 16.4995C0.473057 16.6472 0 17.2087 0 17.8741V20.6078C0 21.4812 0.796308 22.1454 1.66258 21.9912C3.88867 21.5952 5.95122 20.7229 7.7373 19.486C9.24163 18.4459 10.5496 17.1477 11.5978 15.6545C13.0478 13.5918 14.0002 11.1574 14.2786 8.52841C14.3099 8.23319 14.0796 7.97459 13.7804 7.97459H9.97353C9.30315 7.97459 8.73745 8.44436 8.58885 9.093" fill="white" fill-opacity="0.46"/>
<path d="M15.7648 29.9553C15.7337 30.2496 15.9631 30.5074 16.2615 30.5074H20.0694C20.74 30.5074 21.3057 30.0374 21.4543 29.3883C22.2942 25.7144 25.2146 22.8177 28.9166 21.9825C29.5703 21.835 30.0436 21.2733 30.0436 20.6079V17.8743C30.0436 17.0008 29.2475 16.3366 28.3813 16.4906C26.1552 16.8861 24.0924 17.7567 22.3063 18.996C20.8017 20.0335 19.494 21.3346 18.4459 22.8249C16.9956 24.8907 16.0429 27.3258 15.7648 29.9553Z" fill="white" fill-opacity="0.46"/>
<path d="M20.0701 7.97459H16.2632C15.9641 7.97459 15.7337 8.23319 15.7651 8.52841C16.0435 11.1574 16.9958 13.5918 18.4459 15.6545C19.494 17.1477 20.802 18.4459 22.3063 19.486C24.0924 20.7229 26.155 21.5952 28.3811 21.9912C29.2473 22.1454 30.0439 21.4812 30.0439 20.6078V17.8741C30.0439 17.2087 29.5706 16.6472 28.9171 16.4995C25.2171 15.6641 22.2967 12.7652 21.455 9.093C21.3062 8.44436 20.7405 7.97459 20.0701 7.97459" fill="white"/>
<path d="M11.5978 22.8249C10.5496 21.3346 9.24188 20.0335 7.73731 18.996C5.95122 17.7567 3.88843 16.8861 1.66233 16.4906C0.796067 16.3366 0 17.0008 0 17.8743V20.6079C0 21.2733 0.473298 21.835 1.12704 21.9825C4.829 22.8177 7.74937 25.7144 8.58934 29.3883C8.73794 30.0374 9.30363 30.5074 9.97426 30.5074H13.7821C14.0803 30.5074 14.3099 30.2496 14.2788 29.9553C14.0007 27.3258 13.048 24.8907 11.5978 22.8249" fill="white"/>
<path d="M52.2526 8.92383H56.0346L64.2607 27.4904H66.3494V30.241H55.347V27.4904H58.0976L56.877 24.7398H49.1066L47.9634 27.4904H53.2841V30.241H42.2817V27.4904H44.5251L52.2526 8.92383ZM50.2498 21.9892H55.6564L53.5247 17.1756C53.2497 16.5453 53.0319 15.9264 52.8715 15.319C52.648 16.1098 52.4417 16.7287 52.2526 17.1756L50.2498 21.9892ZM72.7789 27.499C73.1055 27.7225 73.5984 27.8342 74.2574 27.8342C74.8476 27.8342 75.3261 27.7998 75.6928 27.731C76.0653 27.6623 76.3461 27.5505 76.5352 27.3958C76.7243 27.2354 76.8504 27.0606 76.9134 26.8715C76.9764 26.6766 77.008 26.4245 77.008 26.1151C77.008 25.7483 76.9105 25.4332 76.7157 25.1696C76.5209 24.906 76.2573 24.6939 75.9249 24.5335C75.5925 24.373 75.2115 24.2326 74.7817 24.1123C74.3519 23.9862 73.8992 23.8687 73.4236 23.7599C72.948 23.6453 72.4723 23.5221 71.9967 23.3903C71.5211 23.2527 71.0684 23.0751 70.6386 22.8573C70.2088 22.6338 69.8278 22.3731 69.4954 22.0751C69.163 21.7714 68.8994 21.3789 68.7046 20.8975C68.5098 20.4162 68.4123 19.8632 68.4123 19.2386C68.4123 18.6655 68.4811 18.1441 68.6186 17.6742C68.7562 17.2043 68.9395 16.806 69.1688 16.4794C69.398 16.147 69.6874 15.8576 70.0369 15.6112C70.3865 15.3648 70.7504 15.1671 71.1286 15.0181C71.5125 14.8691 71.9423 14.7488 72.4179 14.6571C72.8993 14.5654 73.3634 14.5053 73.8104 14.4766C74.2574 14.4422 74.7444 14.425 75.2716 14.425C76.4177 14.425 77.4177 14.5712 78.2715 14.8634C79.1311 15.1557 79.8073 15.5482 80.3001 16.041C80.5637 16.2645 80.7671 16.5367 80.9104 16.8576C81.0594 17.1728 81.1339 17.508 81.1339 17.8633C81.1339 18.528 80.8989 19.0953 80.429 19.5652C79.9591 20.0351 79.3918 20.27 78.7271 20.27C78.0624 20.27 77.495 20.0351 77.0252 19.5652C76.5553 19.0953 76.3203 18.528 76.3203 17.8633C76.3203 17.6226 76.3547 17.3905 76.4235 17.167C76.0968 16.9435 75.604 16.8318 74.945 16.8318C74.137 16.8318 73.5325 16.9292 73.1313 17.1241C72.7359 17.3189 72.5382 17.6799 72.5382 18.2071C72.5382 18.5395 72.6213 18.8346 72.7875 19.0924C72.9537 19.3446 73.18 19.5537 73.4666 19.7199C73.7531 19.8804 74.0855 20.0351 74.4637 20.1841C74.8476 20.3274 75.2545 20.4506 75.6842 20.5537C76.114 20.6511 76.5553 20.7715 77.008 20.9147C77.4607 21.058 77.9019 21.2041 78.3317 21.3531C78.7615 21.5021 79.1655 21.6998 79.5437 21.9462C79.9276 22.1869 80.2628 22.4591 80.5494 22.7628C80.8359 23.0665 81.0622 23.4476 81.2284 23.906C81.3946 24.3587 81.4777 24.8658 81.4777 25.4274C81.4777 26.2297 81.343 26.9374 81.0737 27.5505C80.8101 28.158 80.4548 28.6508 80.0078 29.029C79.5666 29.4072 79.0165 29.7166 78.3575 29.9573C77.6985 30.1923 77.0137 30.3556 76.3031 30.4473C75.5925 30.5389 74.8018 30.5848 73.9307 30.5848C72.1715 30.5848 70.7532 30.2496 69.6759 29.5791C68.6043 28.9086 68.0685 27.9832 68.0685 26.8027C68.0685 26.138 68.3035 25.5707 68.7734 25.1008C69.2433 24.6309 69.8106 24.3959 70.4753 24.3959C71.14 24.3959 71.7073 24.6309 72.1772 25.1008C72.6471 25.5707 72.8821 26.138 72.8821 26.8027C72.8821 27.0434 72.8477 27.2755 72.7789 27.499ZM88.0104 10.9868H89.7295V14.425H94.543V17.1756H89.7295V26.1151C89.7295 26.5047 89.8384 26.8314 90.0561 27.095C90.2796 27.3586 90.6292 27.4904 91.1048 27.4904C91.6377 27.4904 92.0904 27.3156 92.4629 26.966C92.8354 26.6108 93.0703 26.0979 93.1677 25.4274L95.2307 25.7712C95.1447 26.4417 94.9785 27.0635 94.7321 27.6365C94.4914 28.2038 94.1763 28.7109 93.7866 29.1579C93.3969 29.5992 92.9127 29.9487 92.3339 30.2066C91.7609 30.4587 91.122 30.5848 90.4171 30.5848C88.7037 30.5848 87.3571 30.1865 86.3772 29.39C85.403 28.5877 84.9159 27.4961 84.9159 26.1151V17.1756H83.1968V14.425H83.5406C84.4231 14.425 85.2024 14.1729 85.8786 13.6686C86.5548 13.1643 87.2654 12.2704 88.0104 10.9868ZM111.39 19.8832V27.4904H113.11V30.241H107.754L106.989 28.4531C106.405 29.2897 105.726 29.8628 104.952 30.1722C104.184 30.4816 103.11 30.6364 101.729 30.6364C101.013 30.6364 100.345 30.5103 99.7262 30.2582C99.113 30.0118 98.5887 29.6737 98.1532 29.2439C97.7234 28.8141 97.3853 28.2984 97.1389 27.6967C96.8982 27.095 96.7779 26.4503 96.7779 25.7626C96.7779 24.5765 97.242 23.5937 98.1704 22.8144C99.0987 22.0293 100.285 21.6368 101.729 21.6368C102.892 21.6368 103.855 21.7485 104.617 21.972C105.379 22.1897 106.033 22.5393 106.577 23.0206V19.3761C106.577 18.8604 106.505 18.4306 106.362 18.0868C106.224 17.7372 106.015 17.4707 105.735 17.2874C105.454 17.0983 105.139 16.9665 104.789 16.892C104.439 16.8175 104.021 16.7802 103.534 16.7802C103.144 16.7802 102.792 16.8633 102.477 17.0295C102.654 17.402 102.743 17.7945 102.743 18.2071C102.743 18.9692 102.474 19.6196 101.935 20.1583C101.402 20.6912 100.755 20.9577 99.9926 20.9577C99.2305 20.9577 98.5801 20.6912 98.0414 20.1583C97.5085 19.6196 97.242 18.9692 97.242 18.2071C97.242 17.8174 97.3165 17.4507 97.4655 17.1069C97.6203 16.763 97.8323 16.4622 98.1016 16.2043C98.3308 15.9636 98.5686 15.7488 98.815 15.5596C99.0615 15.3648 99.3709 15.1728 99.7434 14.9837C100.122 14.7889 100.531 14.6285 100.973 14.5024C101.414 14.3763 101.941 14.276 102.554 14.2015C103.173 14.1213 103.849 14.0812 104.583 14.0812C105.534 14.0812 106.428 14.2216 107.265 14.5024C108.101 14.7832 108.823 15.1728 109.431 15.6714C110.038 16.1699 110.517 16.7831 110.866 17.5109C111.216 18.2386 111.39 19.0294 111.39 19.8832ZM106.577 26.4245V25.2383C106.222 24.9002 105.82 24.6166 105.374 24.3874C104.932 24.1524 104.523 24.0349 104.144 24.0349C103.331 24.0349 102.758 24.1725 102.425 24.4475C102.093 24.7168 101.927 25.1552 101.927 25.7626C101.927 26.4904 102.07 27.0262 102.356 27.37C102.643 27.7139 103.176 27.8858 103.955 27.8858C104.396 27.8858 104.855 27.7454 105.331 27.4646C105.812 27.1781 106.227 26.8314 106.577 26.4245ZM114.657 14.425H119.995L121.078 16.5138C122.092 14.8921 123.527 14.0812 125.384 14.0812C126.628 14.0812 127.613 14.4651 128.341 15.233C129.074 15.9952 129.441 16.9865 129.441 18.2071C129.441 18.9692 129.172 19.6196 128.633 20.1583C128.1 20.6912 127.453 20.9577 126.691 20.9577C125.928 20.9577 125.278 20.6912 124.739 20.1583C124.207 19.6196 123.94 18.9692 123.94 18.2071C123.94 17.8977 123.989 17.5997 124.086 17.3132C123.931 17.2215 123.768 17.1756 123.596 17.1756C123.212 17.1756 122.814 17.4278 122.401 17.932C121.995 18.4306 121.602 19.1784 121.224 20.1755L121.189 27.4904H124.972V30.241H114.657V27.4904H116.376V17.1756H114.657V14.425ZM135.63 10.9868H137.349V14.425H142.163V17.1756H137.349V26.1151C137.349 26.5047 137.458 26.8314 137.676 27.095C137.899 27.3586 138.249 27.4904 138.725 27.4904C139.257 27.4904 139.71 27.3156 140.083 26.966C140.455 26.6108 140.69 26.0979 140.787 25.4274L142.85 25.7712C142.764 26.4417 142.598 27.0635 142.352 27.6365C142.111 28.2038 141.796 28.7109 141.406 29.1579C141.017 29.5992 140.532 29.9487 139.954 30.2066C139.381 30.4587 138.742 30.5848 138.037 30.5848C136.323 30.5848 134.977 30.1865 133.997 29.39C133.023 28.5877 132.536 27.4961 132.536 26.1151V17.1756H130.817V14.425H131.16C132.043 14.425 132.822 14.1729 133.498 13.6686C134.175 13.1643 134.885 12.2704 135.63 10.9868ZM149.538 23.3645C149.589 24.0292 149.698 24.6223 149.864 25.1438C150.031 25.6652 150.231 26.0921 150.466 26.4245C150.707 26.7569 150.985 27.0319 151.3 27.2497C151.615 27.4617 151.939 27.6136 152.271 27.7053C152.604 27.7912 152.959 27.8342 153.337 27.8342C154.546 27.8342 155.489 27.6021 156.165 27.1379C156.847 26.6681 157.391 25.946 157.798 24.9719L160.085 25.7626C159.878 26.3185 159.615 26.8428 159.294 27.3356C158.979 27.8227 158.598 28.2726 158.151 28.6852C157.704 29.0977 157.205 29.453 156.655 29.751C156.111 30.0433 155.495 30.2725 154.807 30.4387C154.119 30.6048 153.394 30.6879 152.632 30.6879C151.503 30.6879 150.435 30.4902 149.426 30.0948C148.423 29.6994 147.549 29.1493 146.804 28.4445C146.065 27.7339 145.478 26.86 145.042 25.8228C144.613 24.7856 144.398 23.6567 144.398 22.4361C144.398 21.2156 144.613 20.0809 145.042 19.0323C145.478 17.9836 146.065 17.1011 146.804 16.3848C147.549 15.6628 148.423 15.0984 149.426 14.6915C150.435 14.2846 151.503 14.0812 152.632 14.0812C153.761 14.0812 154.827 14.2846 155.83 14.6915C156.838 15.0984 157.712 15.6628 158.451 16.3848C159.196 17.1011 159.784 17.9836 160.214 19.0323C160.649 20.0809 160.867 21.2156 160.867 22.4361L160.652 23.3645H149.538ZM149.598 20.6139H155.666C155.517 19.2959 155.188 18.336 154.678 17.7343C154.168 17.1326 153.492 16.8318 152.649 16.8318C152.231 16.8318 151.856 16.9006 151.523 17.0381C151.191 17.1699 150.893 17.3848 150.629 17.6828C150.366 17.975 150.145 18.3676 149.968 18.8604C149.796 19.3475 149.672 19.932 149.598 20.6139ZM167.296 27.499C167.623 27.7225 168.116 27.8342 168.775 27.8342C169.365 27.8342 169.844 27.7998 170.21 27.731C170.583 27.6623 170.864 27.5505 171.053 27.3958C171.242 27.2354 171.368 27.0606 171.431 26.8715C171.494 26.6766 171.525 26.4245 171.525 26.1151C171.525 25.7483 171.428 25.4332 171.233 25.1696C171.038 24.906 170.775 24.6939 170.442 24.5335C170.11 24.373 169.729 24.2326 169.299 24.1123C168.869 23.9862 168.417 23.8687 167.941 23.7599C167.465 23.6453 166.99 23.5221 166.514 23.3903C166.039 23.2527 165.586 23.0751 165.156 22.8573C164.726 22.6338 164.345 22.3731 164.013 22.0751C163.68 21.7714 163.417 21.3789 163.222 20.8975C163.027 20.4162 162.93 19.8632 162.93 19.2386C162.93 18.6655 162.999 18.1441 163.136 17.6742C163.274 17.2043 163.457 16.806 163.686 16.4794C163.915 16.147 164.205 15.8576 164.554 15.6112C164.904 15.3648 165.268 15.1671 165.646 15.0181C166.03 14.8691 166.46 14.7488 166.935 14.6571C167.417 14.5654 167.881 14.5053 168.328 14.4766C168.775 14.4422 169.262 14.425 169.789 14.425C170.935 14.425 171.935 14.5712 172.789 14.8634C173.649 15.1557 174.325 15.5482 174.818 16.041C175.081 16.2645 175.285 16.5367 175.428 16.8576C175.577 17.1728 175.651 17.508 175.651 17.8633C175.651 18.528 175.416 19.0953 174.946 19.5652C174.477 20.0351 173.909 20.27 173.245 20.27C172.58 20.27 172.012 20.0351 171.543 19.5652C171.073 19.0953 170.838 18.528 170.838 17.8633C170.838 17.6226 170.872 17.3905 170.941 17.167C170.614 16.9435 170.121 16.8318 169.462 16.8318C168.654 16.8318 168.05 16.9292 167.649 17.1241C167.253 17.3189 167.056 17.6799 167.056 18.2071C167.056 18.5395 167.139 18.8346 167.305 19.0924C167.471 19.3446 167.697 19.5537 167.984 19.7199C168.271 19.8804 168.603 20.0351 168.981 20.1841C169.365 20.3274 169.772 20.4506 170.202 20.5537C170.631 20.6511 171.073 20.7715 171.525 20.9147C171.978 21.058 172.419 21.2041 172.849 21.3531C173.279 21.5021 173.683 21.6998 174.061 21.9462C174.445 22.1869 174.78 22.4591 175.067 22.7628C175.353 23.0665 175.58 23.4476 175.746 23.906C175.912 24.3587 175.995 24.8658 175.995 25.4274C175.995 26.2297 175.86 26.9374 175.591 27.5505C175.328 28.158 174.972 28.6508 174.525 29.029C174.084 29.4072 173.534 29.7166 172.875 29.9573C172.216 30.1923 171.531 30.3556 170.821 30.4473C170.11 30.5389 169.319 30.5848 168.448 30.5848C166.689 30.5848 165.271 30.2496 164.193 29.5791C163.122 28.9086 162.586 27.9832 162.586 26.8027C162.586 26.138 162.821 25.5707 163.291 25.1008C163.761 24.6309 164.328 24.3959 164.993 24.3959C165.657 24.3959 166.225 24.6309 166.695 25.1008C167.165 25.5707 167.399 26.138 167.399 26.8027C167.399 27.0434 167.365 27.2755 167.296 27.499Z" fill="white"/>
</svg>
