<svg width="178" height="39" viewBox="0 0 178 39" fill="none" xmlns="http://www.w3.org/2000/svg">
<path d="M26.9371 23.481C26.9371 23.9343 26.9838 24.301 27.0771 24.581C27.1704 24.8476 27.3104 25.061 27.4971 25.221C27.6971 25.3676 27.9371 25.4743 28.2171 25.541C28.5104 25.6076 28.8504 25.6543 29.2371 25.681C29.3304 25.681 29.3971 25.721 29.4371 25.801C29.4771 25.8676 29.4971 25.9476 29.4971 26.041C29.4971 26.121 29.4704 26.1943 29.4171 26.261C29.3771 26.3276 29.3104 26.361 29.2171 26.361C28.4971 26.361 27.8771 26.3343 27.3571 26.281C26.8504 26.2276 26.3571 26.201 25.8771 26.201C25.3704 26.201 24.8704 26.2276 24.3771 26.281C23.8838 26.3343 23.4038 26.361 22.9371 26.361C22.8571 26.361 22.7971 26.3276 22.7571 26.261C22.7171 26.1943 22.6904 26.121 22.6771 26.041C22.6771 25.961 22.6971 25.8876 22.7371 25.821C22.7771 25.741 22.8438 25.6943 22.9371 25.681C23.3104 25.641 23.6171 25.5876 23.8571 25.521C24.0971 25.4543 24.2838 25.3476 24.4171 25.201C24.5504 25.0543 24.6371 24.861 24.6771 24.621C24.7304 24.381 24.7571 24.061 24.7571 23.661V16.201C24.7571 15.9076 24.7504 15.6143 24.7371 15.321C24.7238 15.0276 24.6771 14.761 24.5971 14.521C24.5304 14.2676 24.4238 14.0543 24.2771 13.881C24.1438 13.7076 23.9571 13.5943 23.7171 13.541C23.5704 13.5143 23.4171 13.4876 23.2571 13.461C23.0971 13.421 22.9438 13.3943 22.7971 13.381C22.7171 13.381 22.6571 13.3476 22.6171 13.281C22.5771 13.2143 22.5571 13.141 22.5571 13.061C22.5571 12.981 22.5771 12.9076 22.6171 12.841C22.6571 12.7743 22.7171 12.741 22.7971 12.741C23.2504 12.741 23.6571 12.761 24.0171 12.801C24.3771 12.841 24.7971 12.861 25.2771 12.861C26.0771 12.8476 26.7371 12.8276 27.2571 12.801C27.7904 12.761 28.2971 12.741 28.7771 12.741C29.3104 12.741 29.8304 12.801 30.3371 12.921C30.8571 13.0276 31.3104 13.221 31.6971 13.501C32.0971 13.7676 32.4171 14.121 32.6571 14.561C32.8971 15.001 33.0171 15.541 33.0171 16.181C33.0171 16.9276 32.8704 17.5476 32.5771 18.041C32.2838 18.5343 31.8771 18.9343 31.3571 19.241C30.8504 19.5476 30.2504 19.7743 29.5571 19.921C28.8638 20.0543 28.1171 20.1343 27.3171 20.161C27.1838 20.161 27.0838 20.181 27.0171 20.221C26.9638 20.261 26.9371 20.3743 26.9371 20.561V23.481ZM26.9371 19.141C26.9371 19.2476 26.9638 19.3143 27.0171 19.341C27.0838 19.3676 27.1971 19.381 27.3571 19.381C28.0104 19.381 28.5571 19.3343 28.9971 19.241C29.4371 19.1343 29.7904 18.9676 30.0571 18.741C30.3238 18.501 30.5104 18.1943 30.6171 17.821C30.7371 17.4476 30.7971 16.981 30.7971 16.421C30.7971 15.3676 30.6038 14.6276 30.2171 14.201C29.8304 13.761 29.1638 13.541 28.2171 13.541C27.6971 13.541 27.3504 13.6076 27.1771 13.741C27.0171 13.8743 26.9371 14.1476 26.9371 14.561V19.141ZM40.8652 26.441C38.7719 26.441 37.1319 25.8476 35.9452 24.661C34.7586 23.4743 34.1652 21.701 34.1652 19.341C34.1652 18.3276 34.3319 17.3943 34.6652 16.541C34.9986 15.6876 35.4586 14.9543 36.0452 14.341C36.6452 13.7276 37.3586 13.2543 38.1852 12.921C39.0119 12.5743 39.9252 12.401 40.9252 12.401C41.8986 12.401 42.7919 12.5676 43.6052 12.901C44.4186 13.221 45.1186 13.681 45.7052 14.281C46.2919 14.881 46.7452 15.6076 47.0652 16.461C47.3986 17.301 47.5652 18.241 47.5652 19.281C47.5652 20.441 47.3852 21.4676 47.0252 22.361C46.6786 23.241 46.1986 23.9876 45.5852 24.601C44.9852 25.201 44.2786 25.661 43.4652 25.981C42.6519 26.2876 41.7852 26.441 40.8652 26.441ZM40.9452 25.601C41.5986 25.601 42.1719 25.4276 42.6652 25.081C43.1719 24.7343 43.5986 24.281 43.9452 23.721C44.2919 23.1476 44.5519 22.4943 44.7252 21.761C44.9119 21.0143 45.0052 20.241 45.0052 19.441C45.0052 18.6676 44.9319 17.9076 44.7852 17.161C44.6519 16.4143 44.4252 15.7543 44.1052 15.181C43.7852 14.5943 43.3586 14.1276 42.8252 13.781C42.2919 13.421 41.6386 13.241 40.8652 13.241C40.1452 13.241 39.5186 13.421 38.9852 13.781C38.4652 14.141 38.0386 14.6143 37.7052 15.201C37.3719 15.7743 37.1252 16.4343 36.9652 17.181C36.8052 17.9143 36.7252 18.661 36.7252 19.421C36.7252 20.221 36.7919 20.9943 36.9252 21.741C37.0586 22.4876 37.2852 23.1476 37.6052 23.721C37.9252 24.281 38.3519 24.7343 38.8852 25.081C39.4319 25.4276 40.1186 25.601 40.9452 25.601ZM51.0852 16.161C51.0852 15.8676 51.0719 15.581 51.0452 15.301C51.0319 15.021 50.9919 14.761 50.9252 14.521C50.8586 14.281 50.7519 14.0743 50.6052 13.901C50.4719 13.7276 50.2852 13.6076 50.0452 13.541C49.8986 13.501 49.7452 13.4676 49.5852 13.441C49.4252 13.4143 49.2719 13.3943 49.1252 13.381C49.0452 13.381 48.9852 13.3476 48.9452 13.281C48.9052 13.2143 48.8852 13.141 48.8852 13.061C48.8852 12.981 48.9052 12.9076 48.9452 12.841C48.9852 12.7743 49.0452 12.741 49.1252 12.741C49.5786 12.741 49.9852 12.7543 50.3452 12.781C50.7052 12.8076 51.1252 12.821 51.6052 12.821C52.4052 12.8076 53.0652 12.7943 53.5852 12.781C54.1186 12.7543 54.6252 12.741 55.1052 12.741C55.6386 12.741 56.1652 12.8076 56.6852 12.941C57.2052 13.061 57.6652 13.261 58.0652 13.541C58.4786 13.821 58.8052 14.1876 59.0452 14.641C59.2986 15.0943 59.4252 15.641 59.4252 16.281C59.4252 16.7876 59.3452 17.2276 59.1852 17.601C59.0386 17.9743 58.8319 18.2943 58.5652 18.561C58.2986 18.8276 57.9786 19.0476 57.6052 19.221C57.2452 19.381 56.8519 19.5076 56.4252 19.601C56.3319 19.6276 56.2852 19.6743 56.2852 19.741C56.2852 19.7943 56.3319 19.8476 56.4252 19.901C57.0519 20.2076 57.5319 20.5476 57.8652 20.921C58.2119 21.2943 58.4719 21.681 58.6452 22.081C58.8319 22.481 58.9652 22.8943 59.0452 23.321C59.1252 23.7343 59.2119 24.141 59.3052 24.541C59.3719 24.8476 59.4786 25.0743 59.6252 25.221C59.7852 25.3543 59.9452 25.421 60.1052 25.421C60.2652 25.421 60.4186 25.3543 60.5652 25.221C60.7119 25.0876 60.8252 24.8876 60.9052 24.621C60.9319 24.5143 60.9852 24.4476 61.0652 24.421C61.1452 24.381 61.2186 24.3743 61.2852 24.401C61.3652 24.4143 61.4319 24.4543 61.4852 24.521C61.5519 24.5743 61.5786 24.6343 61.5652 24.701C61.5252 25.0343 61.4319 25.321 61.2852 25.561C61.1386 25.801 60.9586 26.001 60.7452 26.161C60.5452 26.3076 60.3119 26.4143 60.0452 26.481C59.7919 26.561 59.5386 26.601 59.2852 26.601C58.8586 26.601 58.4719 26.5076 58.1252 26.321C57.7786 26.1343 57.5452 25.8676 57.4252 25.521C57.3452 25.2943 57.2652 25.0476 57.1852 24.781C57.1186 24.5143 57.0519 24.2476 56.9852 23.981C56.9186 23.701 56.8519 23.4343 56.7852 23.181C56.7186 22.9143 56.6586 22.681 56.6052 22.481C56.3652 21.6276 56.0519 21.0143 55.6652 20.641C55.2919 20.2676 54.7652 20.081 54.0852 20.081C53.8586 20.081 53.6652 20.1276 53.5052 20.221C53.3452 20.3143 53.2652 20.501 53.2652 20.781V23.481C53.2652 23.9343 53.3119 24.301 53.4052 24.581C53.4986 24.8476 53.6386 25.061 53.8252 25.221C54.0119 25.3676 54.2386 25.4743 54.5052 25.541C54.7852 25.6076 55.1052 25.6543 55.4652 25.681C55.5452 25.681 55.6052 25.721 55.6452 25.801C55.6986 25.8676 55.7252 25.9476 55.7252 26.041C55.7252 26.121 55.6986 26.1943 55.6452 26.261C55.6052 26.3276 55.5386 26.361 55.4452 26.361C54.7786 26.361 54.1919 26.3343 53.6852 26.281C53.1786 26.2276 52.6852 26.201 52.2052 26.201C51.6986 26.201 51.1986 26.2276 50.7052 26.281C50.2119 26.3343 49.7319 26.361 49.2652 26.361C49.1852 26.361 49.1252 26.3276 49.0852 26.261C49.0452 26.1943 49.0186 26.121 49.0052 26.041C49.0052 25.961 49.0252 25.8876 49.0652 25.821C49.1052 25.741 49.1719 25.6943 49.2652 25.681C49.6386 25.641 49.9452 25.5876 50.1852 25.521C50.4252 25.4543 50.6119 25.3476 50.7452 25.201C50.8786 25.0543 50.9652 24.861 51.0052 24.621C51.0586 24.381 51.0852 24.061 51.0852 23.661V16.161ZM53.2652 18.541C53.2652 18.8876 53.3586 19.0943 53.5452 19.161C53.7452 19.2143 54.0386 19.241 54.4252 19.241C54.9452 19.241 55.3786 19.1943 55.7252 19.101C56.0852 18.9943 56.3719 18.8276 56.5852 18.601C56.7986 18.361 56.9452 18.061 57.0252 17.701C57.1186 17.3276 57.1652 16.8743 57.1652 16.341C57.1652 15.8343 57.1186 15.4076 57.0252 15.061C56.9319 14.701 56.7786 14.4143 56.5652 14.201C56.3652 13.9743 56.0986 13.8143 55.7652 13.721C55.4319 13.6276 55.0252 13.581 54.5452 13.581C54.0252 13.581 53.6786 13.6476 53.5052 13.781C53.3452 13.9143 53.2652 14.1876 53.2652 14.601V18.541ZM67.7993 23.641C67.7993 24.081 67.8193 24.4276 67.8593 24.681C67.8993 24.921 67.986 25.1076 68.1193 25.241C68.266 25.3743 68.466 25.4743 68.7193 25.541C68.9726 25.5943 69.3126 25.641 69.7393 25.681C69.8193 25.6943 69.8793 25.741 69.9193 25.821C69.9726 25.8876 69.9993 25.961 69.9993 26.041C69.9993 26.121 69.9726 26.1943 69.9193 26.261C69.8793 26.3276 69.8126 26.361 69.7193 26.361C69.186 26.361 68.6726 26.3343 68.1793 26.281C67.6993 26.2276 67.2193 26.201 66.7393 26.201C66.2326 26.201 65.706 26.2276 65.1593 26.281C64.626 26.3343 64.1393 26.361 63.6993 26.361C63.6193 26.361 63.5593 26.3276 63.5193 26.261C63.4793 26.1943 63.4593 26.121 63.4593 26.041C63.4593 25.961 63.4793 25.8876 63.5193 25.821C63.5593 25.741 63.6193 25.6943 63.6993 25.681C64.1126 25.641 64.4393 25.5943 64.6793 25.541C64.9326 25.4743 65.126 25.3743 65.2593 25.241C65.406 25.1076 65.4993 24.921 65.5393 24.681C65.5926 24.4276 65.6193 24.081 65.6193 23.641V14.761C65.6193 14.2676 65.4926 13.961 65.2393 13.841C64.9993 13.7076 64.586 13.641 63.9993 13.641C63.506 13.641 63.0993 13.681 62.7793 13.761C62.4593 13.8276 62.1926 13.961 61.9793 14.161C61.7793 14.3476 61.6126 14.6076 61.4793 14.941C61.3593 15.2743 61.246 15.7076 61.1393 16.241C61.126 16.321 61.0793 16.3743 60.9993 16.401C60.9326 16.4276 60.8593 16.441 60.7793 16.441C60.7126 16.4276 60.646 16.401 60.5793 16.361C60.526 16.321 60.4993 16.2743 60.4993 16.221C60.5526 15.7276 60.5793 15.2276 60.5793 14.721C60.5926 14.201 60.566 13.6876 60.4993 13.181C60.4993 13.0343 60.5926 12.9343 60.7793 12.881C60.966 12.8276 61.1726 12.801 61.3993 12.801H72.0993C72.3526 12.801 72.5593 12.8276 72.7193 12.881C72.8926 12.921 72.9793 13.0143 72.9793 13.161C72.9526 13.321 72.926 13.521 72.8993 13.761C72.886 13.9876 72.8793 14.241 72.8793 14.521C72.8793 14.801 72.886 15.0876 72.8993 15.381C72.926 15.6743 72.9526 15.9543 72.9793 16.221C72.9793 16.2743 72.946 16.3276 72.8793 16.381C72.8126 16.421 72.7393 16.4476 72.6593 16.461C72.5793 16.461 72.4993 16.4476 72.4193 16.421C72.3526 16.3943 72.3126 16.341 72.2993 16.261C72.2193 15.7276 72.1126 15.2943 71.9793 14.961C71.846 14.6143 71.666 14.3476 71.4393 14.161C71.226 13.961 70.9593 13.8276 70.6393 13.761C70.3193 13.681 69.9393 13.641 69.4993 13.641C68.8993 13.641 68.466 13.7076 68.1993 13.841C67.9326 13.961 67.7993 14.2676 67.7993 14.761V23.641ZM83.629 12.801C83.7357 12.801 83.8357 12.8143 83.929 12.841C84.0357 12.8676 84.0757 12.9743 84.049 13.161C84.0223 13.3076 84.009 13.4743 84.009 13.661C84.009 13.8476 84.009 14.0343 84.009 14.221C84.009 14.821 84.029 15.381 84.069 15.901C84.069 15.9543 84.0357 16.001 83.969 16.041C83.9157 16.0676 83.849 16.0876 83.769 16.101C83.689 16.101 83.609 16.0876 83.529 16.061C83.4623 16.0343 83.4223 15.981 83.409 15.901C83.3157 15.381 83.2223 14.9743 83.129 14.681C83.0357 14.3876 82.9023 14.1676 82.729 14.021C82.569 13.861 82.3423 13.761 82.049 13.721C81.769 13.681 81.3957 13.6543 80.929 13.641H79.729C79.3823 13.641 79.1023 13.6476 78.889 13.661C78.689 13.6743 78.529 13.7276 78.409 13.821C78.289 13.901 78.209 14.0343 78.169 14.221C78.129 14.4076 78.109 14.6676 78.109 15.001V18.501C78.109 18.6876 78.1423 18.8076 78.209 18.861C78.2757 18.901 78.3423 18.921 78.409 18.921C79.0223 18.921 79.5023 18.8943 79.849 18.841C80.209 18.7876 80.4757 18.6943 80.649 18.561C80.8357 18.4143 80.9557 18.2276 81.009 18.001C81.0757 17.7743 81.129 17.481 81.169 17.121C81.1823 17.041 81.2223 16.981 81.289 16.941C81.3557 16.901 81.429 16.881 81.509 16.881C81.589 16.881 81.6623 16.901 81.729 16.941C81.7957 16.981 81.829 17.041 81.829 17.121C81.829 17.3343 81.8223 17.5276 81.809 17.701C81.7957 17.861 81.7823 18.0276 81.769 18.201C81.7557 18.361 81.7423 18.5343 81.729 18.721C81.7157 18.8943 81.709 19.101 81.709 19.341C81.709 19.741 81.729 20.1076 81.769 20.441C81.809 20.761 81.829 21.1543 81.829 21.621C81.829 21.6876 81.7957 21.741 81.729 21.781C81.6623 21.8076 81.589 21.821 81.509 21.821C81.429 21.8076 81.3557 21.7876 81.289 21.761C81.2223 21.721 81.1823 21.661 81.169 21.581C81.129 21.1943 81.0757 20.881 81.009 20.641C80.9557 20.401 80.8357 20.221 80.649 20.101C80.4757 19.9676 80.209 19.881 79.849 19.841C79.5023 19.7876 79.0223 19.761 78.409 19.761C78.3423 19.761 78.2757 19.7876 78.209 19.841C78.1423 19.881 78.109 19.9743 78.109 20.121V22.741C78.109 23.1676 78.1357 23.5343 78.189 23.841C78.2557 24.1343 78.349 24.381 78.469 24.581C78.589 24.7676 78.7357 24.921 78.909 25.041C79.0823 25.1476 79.289 25.2276 79.529 25.281C79.7157 25.321 79.9223 25.3543 80.149 25.381C80.389 25.3943 80.6357 25.401 80.889 25.401C81.209 25.401 81.509 25.3876 81.789 25.361C82.069 25.3343 82.2823 25.2943 82.429 25.241C82.6957 25.1476 82.9223 25.0476 83.109 24.941C83.309 24.8343 83.4757 24.6943 83.609 24.521C83.7423 24.3476 83.849 24.1343 83.929 23.881C84.0223 23.6143 84.0957 23.281 84.149 22.881C84.1623 22.801 84.209 22.7476 84.289 22.721C84.369 22.6943 84.4557 22.681 84.549 22.681C84.6423 22.681 84.7223 22.701 84.789 22.741C84.869 22.781 84.9023 22.8343 84.889 22.901C84.8223 23.461 84.7623 23.9876 84.709 24.481C84.6557 24.961 84.6357 25.4543 84.649 25.961C84.649 26.001 84.6223 26.061 84.569 26.141C84.5157 26.2076 84.389 26.241 84.189 26.241H76.929C76.4223 26.241 75.9223 26.2543 75.429 26.281C74.949 26.3076 74.5157 26.3343 74.129 26.361C74.0223 26.361 73.9423 26.3276 73.889 26.261C73.8357 26.2076 73.8023 26.141 73.789 26.061C73.7757 25.9676 73.7957 25.8876 73.849 25.821C73.9023 25.741 73.989 25.6943 74.109 25.681C74.429 25.641 74.7023 25.5876 74.929 25.521C75.1557 25.441 75.3423 25.3343 75.489 25.201C75.6357 25.0543 75.7423 24.8743 75.809 24.661C75.889 24.4476 75.929 24.1743 75.929 23.841V16.141C75.929 15.8476 75.9157 15.561 75.889 15.281C75.8757 15.001 75.8357 14.741 75.769 14.501C75.7023 14.261 75.5957 14.0543 75.449 13.881C75.3157 13.7076 75.129 13.5876 74.889 13.521C74.7423 13.481 74.589 13.4476 74.429 13.421C74.269 13.3943 74.1157 13.3743 73.969 13.361C73.889 13.361 73.829 13.3276 73.789 13.261C73.749 13.1943 73.729 13.121 73.729 13.041C73.729 12.961 73.749 12.8876 73.789 12.821C73.829 12.7543 73.889 12.721 73.969 12.721C74.4223 12.721 74.829 12.7343 75.189 12.761C75.549 12.7876 75.969 12.801 76.449 12.801H83.629ZM87.9212 16.161C87.9212 15.8676 87.9078 15.581 87.8812 15.301C87.8678 15.021 87.8278 14.761 87.7612 14.521C87.6945 14.281 87.5878 14.0743 87.4412 13.901C87.3078 13.7276 87.1212 13.6076 86.8812 13.541C86.7345 13.501 86.5812 13.4676 86.4212 13.441C86.2612 13.4143 86.1078 13.3943 85.9612 13.381C85.8812 13.381 85.8212 13.3476 85.7812 13.281C85.7412 13.2143 85.7212 13.141 85.7212 13.061C85.7212 12.981 85.7412 12.9076 85.7812 12.841C85.8212 12.7743 85.8812 12.741 85.9612 12.741C86.4145 12.741 86.8212 12.7543 87.1812 12.781C87.5412 12.8076 87.9612 12.821 88.4412 12.821C89.2412 12.8076 89.9012 12.7943 90.4212 12.781C90.9545 12.7543 91.4612 12.741 91.9412 12.741C92.4745 12.741 93.0012 12.8076 93.5212 12.941C94.0412 13.061 94.5012 13.261 94.9012 13.541C95.3145 13.821 95.6412 14.1876 95.8812 14.641C96.1345 15.0943 96.2612 15.641 96.2612 16.281C96.2612 16.7876 96.1812 17.2276 96.0212 17.601C95.8745 17.9743 95.6678 18.2943 95.4012 18.561C95.1345 18.8276 94.8145 19.0476 94.4412 19.221C94.0812 19.381 93.6878 19.5076 93.2612 19.601C93.1678 19.6276 93.1212 19.6743 93.1212 19.741C93.1212 19.7943 93.1678 19.8476 93.2612 19.901C93.8878 20.2076 94.3678 20.5476 94.7012 20.921C95.0478 21.2943 95.3078 21.681 95.4812 22.081C95.6678 22.481 95.8012 22.8943 95.8812 23.321C95.9612 23.7343 96.0478 24.141 96.1412 24.541C96.2078 24.8476 96.3145 25.0743 96.4612 25.221C96.6212 25.3543 96.7812 25.421 96.9412 25.421C97.1012 25.421 97.2545 25.3543 97.4012 25.221C97.5478 25.0876 97.6612 24.8876 97.7412 24.621C97.7678 24.5143 97.8212 24.4476 97.9012 24.421C97.9812 24.381 98.0545 24.3743 98.1212 24.401C98.2012 24.4143 98.2678 24.4543 98.3212 24.521C98.3878 24.5743 98.4145 24.6343 98.4012 24.701C98.3612 25.0343 98.2678 25.321 98.1212 25.561C97.9745 25.801 97.7945 26.001 97.5812 26.161C97.3812 26.3076 97.1478 26.4143 96.8812 26.481C96.6278 26.561 96.3745 26.601 96.1212 26.601C95.6945 26.601 95.3078 26.5076 94.9612 26.321C94.6145 26.1343 94.3812 25.8676 94.2612 25.521C94.1812 25.2943 94.1012 25.0476 94.0212 24.781C93.9545 24.5143 93.8878 24.2476 93.8212 23.981C93.7545 23.701 93.6878 23.4343 93.6212 23.181C93.5545 22.9143 93.4945 22.681 93.4412 22.481C93.2012 21.6276 92.8878 21.0143 92.5012 20.641C92.1278 20.2676 91.6012 20.081 90.9212 20.081C90.6945 20.081 90.5012 20.1276 90.3412 20.221C90.1812 20.3143 90.1012 20.501 90.1012 20.781V23.481C90.1012 23.9343 90.1478 24.301 90.2412 24.581C90.3345 24.8476 90.4745 25.061 90.6612 25.221C90.8478 25.3676 91.0745 25.4743 91.3412 25.541C91.6212 25.6076 91.9412 25.6543 92.3012 25.681C92.3812 25.681 92.4412 25.721 92.4812 25.801C92.5345 25.8676 92.5612 25.9476 92.5612 26.041C92.5612 26.121 92.5345 26.1943 92.4812 26.261C92.4412 26.3276 92.3745 26.361 92.2812 26.361C91.6145 26.361 91.0278 26.3343 90.5212 26.281C90.0145 26.2276 89.5212 26.201 89.0412 26.201C88.5345 26.201 88.0345 26.2276 87.5412 26.281C87.0478 26.3343 86.5678 26.361 86.1012 26.361C86.0212 26.361 85.9612 26.3276 85.9212 26.261C85.8812 26.1943 85.8545 26.121 85.8412 26.041C85.8412 25.961 85.8612 25.8876 85.9012 25.821C85.9412 25.741 86.0078 25.6943 86.1012 25.681C86.4745 25.641 86.7812 25.5876 87.0212 25.521C87.2612 25.4543 87.4478 25.3476 87.5812 25.201C87.7145 25.0543 87.8012 24.861 87.8412 24.621C87.8945 24.381 87.9212 24.061 87.9212 23.661V16.161ZM90.1012 18.541C90.1012 18.8876 90.1945 19.0943 90.3812 19.161C90.5812 19.2143 90.8745 19.241 91.2612 19.241C91.7812 19.241 92.2145 19.1943 92.5612 19.101C92.9212 18.9943 93.2078 18.8276 93.4212 18.601C93.6345 18.361 93.7812 18.061 93.8612 17.701C93.9545 17.3276 94.0012 16.8743 94.0012 16.341C94.0012 15.8343 93.9545 15.4076 93.8612 15.061C93.7678 14.701 93.6145 14.4143 93.4012 14.201C93.2012 13.9743 92.9345 13.8143 92.6012 13.721C92.2678 13.6276 91.8612 13.581 91.3812 13.581C90.8612 13.581 90.5145 13.6476 90.3412 13.781C90.1812 13.9143 90.1012 14.1876 90.1012 14.601V18.541ZM108.746 12.801C108.853 12.801 108.953 12.8143 109.046 12.841C109.153 12.8676 109.193 12.9743 109.166 13.161C109.126 13.5476 109.113 13.9943 109.126 14.501C109.14 15.0076 109.16 15.4743 109.186 15.901C109.186 15.9543 109.153 16.001 109.086 16.041C109.033 16.0676 108.966 16.0876 108.886 16.101C108.806 16.101 108.726 16.0876 108.646 16.061C108.58 16.021 108.54 15.9676 108.526 15.901C108.433 15.381 108.34 14.9743 108.246 14.681C108.153 14.3876 108.02 14.1676 107.846 14.021C107.686 13.861 107.46 13.761 107.166 13.721C106.886 13.681 106.513 13.6543 106.046 13.641H104.846C104.5 13.641 104.22 13.6476 104.006 13.661C103.806 13.6743 103.646 13.7276 103.526 13.821C103.406 13.901 103.326 14.0343 103.286 14.221C103.246 14.4076 103.226 14.6676 103.226 15.001V18.501C103.226 18.6876 103.26 18.8076 103.326 18.861C103.393 18.901 103.46 18.921 103.526 18.921C104.14 18.921 104.62 18.8943 104.966 18.841C105.326 18.7876 105.593 18.6943 105.766 18.561C105.953 18.4143 106.073 18.2276 106.126 18.001C106.193 17.7743 106.246 17.481 106.286 17.121C106.3 17.041 106.34 16.981 106.406 16.941C106.473 16.901 106.546 16.881 106.626 16.881C106.706 16.881 106.78 16.901 106.846 16.941C106.913 16.981 106.946 17.041 106.946 17.121C106.946 17.3343 106.94 17.5276 106.926 17.701C106.913 17.861 106.9 18.0276 106.886 18.201C106.873 18.361 106.86 18.5343 106.846 18.721C106.833 18.8943 106.826 19.101 106.826 19.341C106.826 19.741 106.846 20.1076 106.886 20.441C106.926 20.761 106.946 21.1543 106.946 21.621C106.946 21.6876 106.913 21.741 106.846 21.781C106.78 21.8076 106.706 21.821 106.626 21.821C106.546 21.8076 106.473 21.7876 106.406 21.761C106.34 21.721 106.3 21.661 106.286 21.581C106.246 21.1943 106.193 20.881 106.126 20.641C106.073 20.401 105.953 20.221 105.766 20.101C105.593 19.9676 105.326 19.881 104.966 19.841C104.62 19.7876 104.14 19.761 103.526 19.761C103.46 19.761 103.393 19.7876 103.326 19.841C103.26 19.881 103.226 19.9743 103.226 20.121V23.481C103.226 23.9343 103.26 24.301 103.326 24.581C103.406 24.8476 103.533 25.061 103.706 25.221C103.893 25.3676 104.133 25.4743 104.426 25.541C104.72 25.5943 105.086 25.641 105.526 25.681C105.62 25.681 105.686 25.721 105.726 25.801C105.766 25.8676 105.786 25.9476 105.786 26.041C105.786 26.121 105.76 26.1943 105.706 26.261C105.666 26.3276 105.6 26.361 105.506 26.361C104.786 26.361 104.166 26.3343 103.646 26.281C103.14 26.2276 102.646 26.201 102.166 26.201C101.66 26.201 101.16 26.2276 100.666 26.281C100.173 26.3343 99.6928 26.361 99.2262 26.361C99.1462 26.361 99.0862 26.3276 99.0462 26.261C99.0062 26.1943 98.9795 26.121 98.9662 26.041C98.9662 25.961 98.9862 25.8876 99.0262 25.821C99.0662 25.741 99.1328 25.6943 99.2262 25.681C99.5995 25.641 99.9062 25.5876 100.146 25.521C100.386 25.4543 100.573 25.3476 100.706 25.201C100.84 25.0543 100.926 24.861 100.966 24.621C101.02 24.381 101.046 24.061 101.046 23.661V16.141C101.046 15.8476 101.033 15.561 101.006 15.281C100.993 15.001 100.953 14.741 100.886 14.501C100.82 14.261 100.713 14.0543 100.566 13.881C100.433 13.7076 100.246 13.5876 100.006 13.521C99.8595 13.481 99.7062 13.4476 99.5462 13.421C99.3862 13.3943 99.2328 13.3743 99.0862 13.361C99.0062 13.361 98.9462 13.3276 98.9062 13.261C98.8662 13.1943 98.8462 13.121 98.8462 13.041C98.8462 12.961 98.8662 12.8876 98.9062 12.821C98.9462 12.7543 99.0062 12.721 99.0862 12.721C99.5395 12.721 99.9462 12.7343 100.306 12.761C100.666 12.7876 101.086 12.801 101.566 12.801H108.746ZM112.158 15.801C112.158 15.3876 112.131 15.0343 112.078 14.741C112.038 14.4476 111.951 14.2076 111.818 14.021C111.685 13.8343 111.491 13.6943 111.238 13.601C110.998 13.4943 110.671 13.4276 110.258 13.401C110.178 13.401 110.118 13.3676 110.078 13.301C110.038 13.221 110.018 13.141 110.018 13.061C110.018 12.981 110.038 12.9076 110.078 12.841C110.118 12.7743 110.178 12.741 110.258 12.741C110.685 12.741 111.171 12.761 111.718 12.801C112.265 12.841 112.778 12.861 113.258 12.861C113.538 12.861 113.798 12.8543 114.038 12.841C114.291 12.8276 114.531 12.8143 114.758 12.801C114.998 12.7876 115.238 12.7743 115.478 12.761C115.718 12.7476 115.978 12.741 116.258 12.741C116.338 12.741 116.391 12.7743 116.418 12.841C116.458 12.9076 116.471 12.981 116.458 13.061C116.458 13.141 116.438 13.221 116.398 13.301C116.358 13.3676 116.305 13.401 116.238 13.401C115.825 13.4276 115.491 13.4876 115.238 13.581C114.985 13.661 114.791 13.7943 114.658 13.981C114.525 14.1543 114.438 14.3876 114.398 14.681C114.358 14.9743 114.338 15.3476 114.338 15.801V23.641C114.338 24.081 114.365 24.4276 114.418 24.681C114.471 24.921 114.565 25.1076 114.698 25.241C114.845 25.3743 115.045 25.4743 115.298 25.541C115.551 25.5943 115.878 25.641 116.278 25.681C116.358 25.6943 116.418 25.741 116.458 25.821C116.511 25.8876 116.538 25.961 116.538 26.041C116.538 26.121 116.511 26.1943 116.458 26.261C116.418 26.3276 116.351 26.361 116.258 26.361C115.725 26.361 115.211 26.3343 114.718 26.281C114.238 26.2276 113.758 26.201 113.278 26.201C112.771 26.201 112.245 26.2276 111.698 26.281C111.165 26.3343 110.678 26.361 110.238 26.361C110.158 26.361 110.098 26.3276 110.058 26.261C110.018 26.1943 109.998 26.121 109.998 26.041C109.998 25.961 110.018 25.8876 110.058 25.821C110.098 25.741 110.158 25.6943 110.238 25.681C110.651 25.641 110.978 25.5943 111.218 25.541C111.471 25.4743 111.665 25.3743 111.798 25.241C111.945 25.1076 112.038 24.921 112.078 24.681C112.131 24.4276 112.158 24.081 112.158 23.641V15.801ZM127.457 12.801C127.564 12.801 127.664 12.8143 127.757 12.841C127.864 12.8676 127.904 12.9743 127.877 13.161C127.85 13.3076 127.837 13.4743 127.837 13.661C127.837 13.8476 127.837 14.0343 127.837 14.221C127.837 14.821 127.857 15.381 127.897 15.901C127.897 15.9543 127.864 16.001 127.797 16.041C127.744 16.0676 127.677 16.0876 127.597 16.101C127.517 16.101 127.437 16.0876 127.357 16.061C127.29 16.0343 127.25 15.981 127.237 15.901C127.144 15.381 127.05 14.9743 126.957 14.681C126.864 14.3876 126.73 14.1676 126.557 14.021C126.397 13.861 126.17 13.761 125.877 13.721C125.597 13.681 125.224 13.6543 124.757 13.641H123.557C123.21 13.641 122.93 13.6476 122.717 13.661C122.517 13.6743 122.357 13.7276 122.237 13.821C122.117 13.901 122.037 14.0343 121.997 14.221C121.957 14.4076 121.937 14.6676 121.937 15.001V18.501C121.937 18.6876 121.97 18.8076 122.037 18.861C122.104 18.901 122.17 18.921 122.237 18.921C122.85 18.921 123.33 18.8943 123.677 18.841C124.037 18.7876 124.304 18.6943 124.477 18.561C124.664 18.4143 124.784 18.2276 124.837 18.001C124.904 17.7743 124.957 17.481 124.997 17.121C125.01 17.041 125.05 16.981 125.117 16.941C125.184 16.901 125.257 16.881 125.337 16.881C125.417 16.881 125.49 16.901 125.557 16.941C125.624 16.981 125.657 17.041 125.657 17.121C125.657 17.3343 125.65 17.5276 125.637 17.701C125.624 17.861 125.61 18.0276 125.597 18.201C125.584 18.361 125.57 18.5343 125.557 18.721C125.544 18.8943 125.537 19.101 125.537 19.341C125.537 19.741 125.557 20.1076 125.597 20.441C125.637 20.761 125.657 21.1543 125.657 21.621C125.657 21.6876 125.624 21.741 125.557 21.781C125.49 21.8076 125.417 21.821 125.337 21.821C125.257 21.8076 125.184 21.7876 125.117 21.761C125.05 21.721 125.01 21.661 124.997 21.581C124.957 21.1943 124.904 20.881 124.837 20.641C124.784 20.401 124.664 20.221 124.477 20.101C124.304 19.9676 124.037 19.881 123.677 19.841C123.33 19.7876 122.85 19.761 122.237 19.761C122.17 19.761 122.104 19.7876 122.037 19.841C121.97 19.881 121.937 19.9743 121.937 20.121V22.741C121.937 23.1676 121.964 23.5343 122.017 23.841C122.084 24.1343 122.177 24.381 122.297 24.581C122.417 24.7676 122.564 24.921 122.737 25.041C122.91 25.1476 123.117 25.2276 123.357 25.281C123.544 25.321 123.75 25.3543 123.977 25.381C124.217 25.3943 124.464 25.401 124.717 25.401C125.037 25.401 125.337 25.3876 125.617 25.361C125.897 25.3343 126.11 25.2943 126.257 25.241C126.524 25.1476 126.75 25.0476 126.937 24.941C127.137 24.8343 127.304 24.6943 127.437 24.521C127.57 24.3476 127.677 24.1343 127.757 23.881C127.85 23.6143 127.924 23.281 127.977 22.881C127.99 22.801 128.037 22.7476 128.117 22.721C128.197 22.6943 128.284 22.681 128.377 22.681C128.47 22.681 128.55 22.701 128.617 22.741C128.697 22.781 128.73 22.8343 128.717 22.901C128.65 23.461 128.59 23.9876 128.537 24.481C128.484 24.961 128.464 25.4543 128.477 25.961C128.477 26.001 128.45 26.061 128.397 26.141C128.344 26.2076 128.217 26.241 128.017 26.241H120.757C120.25 26.241 119.75 26.2543 119.257 26.281C118.777 26.3076 118.344 26.3343 117.957 26.361C117.85 26.361 117.77 26.3276 117.717 26.261C117.664 26.2076 117.63 26.141 117.617 26.061C117.604 25.9676 117.624 25.8876 117.677 25.821C117.73 25.741 117.817 25.6943 117.937 25.681C118.257 25.641 118.53 25.5876 118.757 25.521C118.984 25.441 119.17 25.3343 119.317 25.201C119.464 25.0543 119.57 24.8743 119.637 24.661C119.717 24.4476 119.757 24.1743 119.757 23.841V16.141C119.757 15.8476 119.744 15.561 119.717 15.281C119.704 15.001 119.664 14.741 119.597 14.501C119.53 14.261 119.424 14.0543 119.277 13.881C119.144 13.7076 118.957 13.5876 118.717 13.521C118.57 13.481 118.417 13.4476 118.257 13.421C118.097 13.3943 117.944 13.3743 117.797 13.361C117.717 13.361 117.657 13.3276 117.617 13.261C117.577 13.1943 117.557 13.121 117.557 13.041C117.557 12.961 117.577 12.8876 117.617 12.821C117.657 12.7543 117.717 12.721 117.797 12.721C118.25 12.721 118.657 12.7343 119.017 12.761C119.377 12.7876 119.797 12.801 120.277 12.801H127.457ZM131.729 15.801C131.729 15.3876 131.703 15.0343 131.649 14.741C131.609 14.4476 131.523 14.2076 131.389 14.021C131.256 13.8343 131.063 13.6943 130.809 13.601C130.569 13.4943 130.243 13.4276 129.829 13.401C129.749 13.401 129.689 13.3676 129.649 13.301C129.609 13.221 129.589 13.141 129.589 13.061C129.589 12.981 129.609 12.9076 129.649 12.841C129.689 12.7743 129.749 12.741 129.829 12.741C130.256 12.741 130.743 12.761 131.289 12.801C131.836 12.841 132.349 12.861 132.829 12.861C133.109 12.861 133.369 12.8543 133.609 12.841C133.863 12.8276 134.103 12.8143 134.329 12.801C134.569 12.7876 134.809 12.7743 135.049 12.761C135.289 12.7476 135.549 12.741 135.829 12.741C135.909 12.741 135.963 12.7743 135.989 12.841C136.029 12.9076 136.043 12.981 136.029 13.061C136.029 13.141 136.009 13.221 135.969 13.301C135.929 13.3676 135.876 13.401 135.809 13.401C135.396 13.4276 135.063 13.4876 134.809 13.581C134.556 13.661 134.363 13.7943 134.229 13.981C134.096 14.1543 134.009 14.3876 133.969 14.681C133.929 14.9743 133.909 15.3476 133.909 15.801V22.761C133.909 23.1876 133.929 23.5476 133.969 23.841C134.009 24.121 134.083 24.361 134.189 24.561C134.296 24.7476 134.443 24.8943 134.629 25.001C134.816 25.1076 135.049 25.201 135.329 25.281C135.516 25.321 135.723 25.3543 135.949 25.381C136.189 25.3943 136.436 25.401 136.689 25.401C137.009 25.401 137.309 25.3876 137.589 25.361C137.869 25.3343 138.083 25.2943 138.229 25.241C138.496 25.1476 138.723 25.0476 138.909 24.941C139.109 24.8343 139.276 24.6943 139.409 24.521C139.543 24.3476 139.649 24.1343 139.729 23.881C139.823 23.6143 139.896 23.281 139.949 22.881C139.963 22.801 140.009 22.7476 140.089 22.721C140.169 22.6943 140.256 22.681 140.349 22.681C140.443 22.681 140.523 22.701 140.589 22.741C140.669 22.781 140.703 22.8343 140.689 22.901C140.623 23.461 140.563 23.9876 140.509 24.481C140.456 24.961 140.436 25.4543 140.449 25.961C140.449 26.001 140.423 26.061 140.369 26.141C140.316 26.2076 140.189 26.241 139.989 26.241H132.729C132.209 26.241 131.709 26.2543 131.229 26.281C130.749 26.321 130.276 26.3543 129.809 26.381C129.716 26.381 129.643 26.3476 129.589 26.281C129.549 26.2143 129.529 26.141 129.529 26.061C129.529 25.981 129.549 25.9076 129.589 25.841C129.643 25.761 129.716 25.7143 129.809 25.701C130.223 25.6476 130.556 25.5943 130.809 25.541C131.063 25.4743 131.256 25.381 131.389 25.261C131.523 25.1276 131.609 24.941 131.649 24.701C131.703 24.4476 131.729 24.101 131.729 23.661V15.821V15.801ZM143.937 16.161C143.937 15.8676 143.923 15.581 143.897 15.301C143.883 15.021 143.843 14.761 143.777 14.521C143.71 14.281 143.603 14.0743 143.457 13.901C143.323 13.7276 143.137 13.6076 142.897 13.541C142.75 13.501 142.597 13.4676 142.437 13.441C142.277 13.4143 142.123 13.3943 141.977 13.381C141.897 13.381 141.837 13.3476 141.797 13.281C141.757 13.2143 141.737 13.141 141.737 13.061C141.737 12.981 141.757 12.9076 141.797 12.841C141.837 12.7743 141.897 12.741 141.977 12.741C142.43 12.741 142.837 12.7543 143.197 12.781C143.557 12.8076 143.977 12.821 144.457 12.821C145.003 12.821 145.543 12.8143 146.077 12.801C146.61 12.7743 147.15 12.7543 147.697 12.741C148.79 12.741 149.797 12.9143 150.717 13.261C151.65 13.6076 152.45 14.0943 153.117 14.721C153.783 15.3343 154.303 16.0743 154.677 16.941C155.063 17.7943 155.257 18.7276 155.257 19.741C155.257 20.861 155.077 21.8343 154.717 22.661C154.357 23.4876 153.863 24.181 153.237 24.741C152.61 25.2876 151.863 25.6943 150.997 25.961C150.143 26.2276 149.217 26.361 148.217 26.361C147.617 26.361 147.03 26.3343 146.457 26.281C145.897 26.2276 145.39 26.201 144.937 26.201C144.657 26.201 144.403 26.2076 144.177 26.221C143.95 26.221 143.73 26.2276 143.517 26.241C143.303 26.2543 143.083 26.2743 142.857 26.301C142.643 26.3276 142.403 26.3543 142.137 26.381C142.057 26.3943 141.99 26.3676 141.937 26.301C141.897 26.2343 141.87 26.161 141.857 26.081C141.843 26.001 141.857 25.921 141.897 25.841C141.95 25.761 142.03 25.7143 142.137 25.701C142.457 25.661 142.73 25.6076 142.957 25.541C143.183 25.461 143.37 25.3543 143.517 25.221C143.663 25.0876 143.77 24.9143 143.837 24.701C143.903 24.4876 143.937 24.2076 143.937 23.861V16.161ZM146.117 22.481C146.117 23.1476 146.143 23.681 146.197 24.081C146.263 24.4676 146.383 24.761 146.557 24.961C146.73 25.161 146.977 25.2943 147.297 25.361C147.63 25.4143 148.07 25.441 148.617 25.441C149.217 25.441 149.763 25.3143 150.257 25.061C150.763 24.8076 151.197 24.441 151.557 23.961C151.917 23.4676 152.197 22.8676 152.397 22.161C152.597 21.4543 152.697 20.641 152.697 19.721C152.697 18.7476 152.597 17.8876 152.397 17.141C152.197 16.381 151.87 15.7476 151.417 15.241C150.963 14.721 150.357 14.3343 149.597 14.081C148.85 13.8143 147.93 13.681 146.837 13.681C146.57 13.681 146.383 13.7276 146.277 13.821C146.17 13.9143 146.117 14.0943 146.117 14.361V22.481Z" fill="white"/>
</svg>
