<svg width="178" height="39" viewBox="0 0 178 39" fill="none" xmlns="http://www.w3.org/2000/svg">
<path d="M22.042 22.0564V31.241H18.6289V8.62378H22.4961C24.3906 8.62378 25.8213 8.75562 26.7881 9.01929C27.7646 9.28296 28.624 9.78101 29.3662 10.5134C30.665 11.783 31.3145 13.3845 31.3145 15.3181C31.3145 17.3884 30.6211 19.0291 29.2344 20.24C27.8477 21.4509 25.9775 22.0564 23.624 22.0564H22.042ZM22.042 18.8923H23.3164C26.4512 18.8923 28.0186 17.6863 28.0186 15.2742C28.0186 12.9402 26.4023 11.7732 23.1699 11.7732H22.042V18.8923ZM34.2002 16.9734H37.4961V18.2478C38.1016 17.613 38.6387 17.1785 39.1074 16.9441C39.5859 16.7 40.1523 16.5779 40.8066 16.5779C41.6758 16.5779 42.584 16.8611 43.5312 17.4275L42.0225 20.4451C41.3975 19.9958 40.7871 19.7712 40.1914 19.7712C38.3945 19.7712 37.4961 21.1287 37.4961 23.8435V31.241H34.2002V16.9734ZM49.1855 16.9734V31.241H45.8896V16.9734H49.1855ZM45.3916 11.0408C45.3916 10.4646 45.6016 9.96655 46.0215 9.54663C46.4414 9.12671 46.9443 8.91675 47.5303 8.91675C48.126 8.91675 48.6338 9.12671 49.0537 9.54663C49.4736 9.95679 49.6836 10.4597 49.6836 11.0554C49.6836 11.6511 49.4736 12.1589 49.0537 12.5789C48.6436 12.9988 48.1406 13.2087 47.5449 13.2087C46.9492 13.2087 46.4414 12.9988 46.0215 12.5789C45.6016 12.1589 45.3916 11.6462 45.3916 11.0408ZM64.4639 17.5886V21.9685C63.7119 21.0505 63.0381 20.4207 62.4424 20.0789C61.8564 19.7273 61.168 19.5515 60.377 19.5515C59.1367 19.5515 58.1064 19.9861 57.2861 20.8552C56.4658 21.7244 56.0557 22.8132 56.0557 24.1218C56.0557 25.4597 56.4512 26.5583 57.2422 27.4177C58.043 28.2771 59.0635 28.7068 60.3037 28.7068C61.0947 28.7068 61.793 28.5359 62.3984 28.1941C62.9844 27.8621 63.6729 27.2175 64.4639 26.2605V30.6111C63.126 31.3044 61.7881 31.6511 60.4502 31.6511C58.2432 31.6511 56.3975 30.9382 54.9131 29.5125C53.4287 28.0769 52.6865 26.2947 52.6865 24.1658C52.6865 22.0369 53.4385 20.24 54.9424 18.7751C56.4463 17.3103 58.292 16.5779 60.4795 16.5779C61.8857 16.5779 63.2139 16.9148 64.4639 17.5886ZM80.6504 24.8835H70.4258C70.5137 26.0554 70.8945 26.988 71.5684 27.6814C72.2422 28.365 73.1064 28.7068 74.1611 28.7068C74.9814 28.7068 75.6602 28.5115 76.1973 28.1208C76.7246 27.7302 77.3252 27.0076 77.999 25.9529L80.7822 27.5056C80.3525 28.238 79.8984 28.8679 79.4199 29.3953C78.9414 29.9128 78.4287 30.3425 77.8818 30.6843C77.335 31.0164 76.7441 31.2605 76.1094 31.4167C75.4746 31.573 74.7861 31.6511 74.0439 31.6511C71.915 31.6511 70.2061 30.9675 68.917 29.6003C67.6279 28.2234 66.9834 26.3972 66.9834 24.1218C66.9834 21.866 67.6084 20.0398 68.8584 18.6433C70.1182 17.2664 71.7881 16.5779 73.8682 16.5779C75.9678 16.5779 77.6279 17.2468 78.8486 18.5847C80.0596 19.9128 80.665 21.7537 80.665 24.1072L80.6504 24.8835ZM77.2666 22.1882C76.8076 20.4304 75.6992 19.5515 73.9414 19.5515C73.541 19.5515 73.165 19.615 72.8135 19.7419C72.4619 19.8591 72.1396 20.0349 71.8467 20.2693C71.5635 20.4939 71.3193 20.7673 71.1143 21.0896C70.9092 21.4119 70.7529 21.7781 70.6455 22.1882H77.2666ZM97.6865 11.9929L94.918 13.6335C94.4004 12.7351 93.9072 12.1492 93.4385 11.8757C92.9502 11.5632 92.3203 11.407 91.5488 11.407C90.6016 11.407 89.8154 11.6755 89.1904 12.2126C88.5654 12.74 88.2529 13.4041 88.2529 14.2048C88.2529 15.3083 89.0732 16.197 90.7139 16.8708L92.9697 17.7937C94.8057 18.5359 96.1484 19.4441 96.998 20.5183C97.8477 21.5828 98.2725 22.8914 98.2725 24.4441C98.2725 26.5242 97.5791 28.2429 96.1924 29.6003C94.7959 30.9675 93.0625 31.6511 90.9922 31.6511C89.0293 31.6511 87.4082 31.0701 86.1289 29.908C84.8691 28.7458 84.083 27.1101 83.7705 25.0007L87.2275 24.239C87.3838 25.5671 87.6572 26.4851 88.0479 26.9929C88.751 27.9695 89.7764 28.4578 91.124 28.4578C92.1885 28.4578 93.0723 28.1013 93.7754 27.3884C94.4785 26.6755 94.8301 25.7722 94.8301 24.6785C94.8301 24.239 94.7666 23.8386 94.6396 23.4773C94.5225 23.1062 94.332 22.7693 94.0684 22.4666C93.8145 22.1541 93.4824 21.866 93.0723 21.6023C92.6621 21.3289 92.1738 21.0701 91.6074 20.8259L89.4248 19.9177C86.3291 18.6091 84.7812 16.6951 84.7812 14.1755C84.7812 12.4763 85.4307 11.0554 86.7295 9.91284C88.0283 8.7605 89.6445 8.18433 91.5781 8.18433C94.1855 8.18433 96.2217 9.45386 97.6865 11.9929ZM105.685 20.0496V31.241H102.389V20.0496H100.982V16.9734H102.389V11.7439H105.685V16.9734H108.248V20.0496H105.685ZM110.021 24.0046C110.021 21.9441 110.758 20.1912 112.232 18.7458C113.707 17.3005 115.504 16.5779 117.623 16.5779C119.752 16.5779 121.559 17.3054 123.043 18.7605C124.508 20.2156 125.24 22.0027 125.24 24.1218C125.24 26.2605 124.503 28.0525 123.028 29.4978C121.544 30.9333 119.723 31.6511 117.564 31.6511C115.426 31.6511 113.634 30.9187 112.188 29.4539C110.743 28.0085 110.021 26.1921 110.021 24.0046ZM113.39 24.0632C113.39 25.489 113.771 26.6169 114.532 27.447C115.313 28.2869 116.344 28.7068 117.623 28.7068C118.912 28.7068 119.942 28.2917 120.714 27.4617C121.485 26.6316 121.871 25.5232 121.871 24.1365C121.871 22.7498 121.485 21.6414 120.714 20.8113C119.933 19.9714 118.902 19.5515 117.623 19.5515C116.363 19.5515 115.343 19.9714 114.562 20.8113C113.78 21.6511 113.39 22.7351 113.39 24.0632ZM128.741 16.9734H132.037V18.2478C132.643 17.613 133.18 17.1785 133.648 16.9441C134.127 16.7 134.693 16.5779 135.348 16.5779C136.217 16.5779 137.125 16.8611 138.072 17.4275L136.563 20.4451C135.938 19.9958 135.328 19.7712 134.732 19.7712C132.936 19.7712 132.037 21.1287 132.037 23.8435V31.241H128.741V16.9734ZM140.431 16.9734H143.727V18.2917C144.361 17.6277 144.903 17.1785 145.353 16.9441C145.831 16.7 146.432 16.5779 147.154 16.5779C148.766 16.5779 150.04 17.281 150.978 18.6873C152.013 17.281 153.414 16.5779 155.182 16.5779C158.395 16.5779 160.001 18.5261 160.001 22.4226V31.241H156.69V23.3162C156.69 21.949 156.524 20.9822 156.192 20.4158C155.851 19.8396 155.289 19.5515 154.508 19.5515C153.6 19.5515 152.936 19.8933 152.516 20.5769C152.105 21.2605 151.9 22.3591 151.9 23.8728V31.241H148.59V23.3601C148.59 20.821 147.857 19.5515 146.393 19.5515C145.465 19.5515 144.786 19.8982 144.356 20.5916C143.937 21.2849 143.727 22.3787 143.727 23.8728V31.241H140.431V16.9734Z" fill="white"/>
</svg>
