<svg width="40" height="41" viewBox="0 0 40 41" fill="none" xmlns="http://www.w3.org/2000/svg">
<g clip-path="url(#clip0_27_38)">
<path d="M32.1466 8.35889C30.4823 7.61013 28.6372 7.19297 26.6918 7.19297C24.2523 7.19297 21.9671 7.84963 20.001 8.99741H19.9992C17.609 10.3903 15.6926 12.5073 14.55 15.0484C13.8013 16.7111 13.3841 18.5583 13.3841 20.5011C13.3841 22.4421 13.8013 24.2876 14.5483 25.9503C12.0072 24.8077 9.89021 22.8909 8.49775 20.5011V20.4993C7.34911 18.5332 6.69287 16.2476 6.69287 13.8081C6.69287 11.8666 7.10831 10.0215 7.85491 8.35889C9.88847 3.83567 14.3724 0.654764 19.6141 0.505186C19.7416 0.502159 19.8713 0.499993 20.001 0.499993C20.1307 0.499993 20.2599 0.502159 20.3875 0.505186C25.6292 0.654764 30.1135 3.83567 32.1466 8.35889" fill="url(#paint0_linear_27_38)"/>
<path d="M7.83628 32.6414C9.50066 33.3902 11.3458 33.8073 13.2911 33.8073C15.7306 33.8073 18.0158 33.1507 19.9819 32.0029H19.9837C22.3739 30.61 24.2903 28.493 25.4329 25.9519C26.1816 24.2892 26.5988 22.442 26.5988 20.4992C26.5988 18.5582 26.1816 16.7127 25.4346 15.05C27.9757 16.1926 30.0927 18.1094 31.4852 20.4992V20.5009C32.6338 22.4671 33.29 24.7527 33.29 27.1922C33.29 29.1337 32.8746 30.9788 32.128 32.6414C30.0944 37.1646 25.6105 40.3455 20.3688 40.4951C20.2413 40.4981 20.1116 40.5003 19.9819 40.5003C19.8522 40.5003 19.723 40.4981 19.5955 40.4951C14.3537 40.3455 9.86942 37.1646 7.83628 32.6414" fill="url(#paint1_linear_27_38)"/>
<path d="M7.91861 8.35624C7.16986 10.0206 6.75269 11.8657 6.75269 13.8111C6.75269 16.2506 7.40935 18.5358 8.55713 20.5019L8.55713 20.5036C9.95002 22.8938 12.067 24.8102 14.6081 25.9528C16.2708 26.7016 18.118 27.1188 20.0608 27.1188C22.0019 27.1188 23.8474 26.7016 25.51 25.9546C24.3674 28.4957 22.4506 30.6127 20.0608 32.0051L20.0591 32.0051C18.0929 33.1538 15.8073 33.81 13.3678 33.81C11.4264 33.81 9.58126 33.3946 7.91861 32.648C3.39539 30.6144 0.214486 26.1305 0.0649079 20.8888C0.0618818 20.7613 0.0597152 20.6316 0.0597152 20.5019C0.0597152 20.3722 0.0618818 20.2429 0.0649079 20.1154C0.214486 14.8737 3.39539 10.3894 7.91861 8.35624" fill="url(#paint2_linear_27_38)"/>
<path d="M32.1414 32.6538C32.8902 30.9894 33.3074 29.1443 33.3074 27.1989C33.3074 24.7594 32.6507 22.4742 31.5029 20.5081L31.5029 20.5064C30.11 18.1162 27.993 16.1997 25.4519 15.0572C23.7893 14.3084 21.942 13.8912 19.9993 13.8912C18.0582 13.8912 16.2127 14.3084 14.55 15.0554C15.6926 12.5143 17.6095 10.3973 19.9993 9.00488L20.001 9.00488C21.9671 7.85624 24.2527 7.2 26.6922 7.2C28.6337 7.2 30.4788 7.61544 32.1414 8.36203C36.6647 10.3956 39.8456 14.8795 39.9952 20.1212C39.9982 20.2487 40.0003 20.3784 40.0003 20.5081C40.0003 20.6378 39.9982 20.7671 39.9952 20.8946C39.8456 26.1363 36.6647 30.6206 32.1414 32.6538" fill="url(#paint3_linear_27_38)"/>
</g>
<defs>
<linearGradient id="paint0_linear_27_38" x1="14.4999" y1="7" x2="11.9999" y2="24" gradientUnits="userSpaceOnUse">
<stop stop-color="#0F0C09"/>
<stop offset="1" stop-color="#0F0C09" stop-opacity="0.44"/>
</linearGradient>
<linearGradient id="paint1_linear_27_38" x1="25.483" y1="34.0003" x2="27.983" y2="17.0003" gradientUnits="userSpaceOnUse">
<stop stop-color="#0F0C09"/>
<stop offset="1" stop-color="#0F0C09" stop-opacity="0.44"/>
</linearGradient>
<linearGradient id="paint2_linear_27_38" x1="6.55972" y1="26.003" x2="23.5597" y2="28.503" gradientUnits="userSpaceOnUse">
<stop stop-color="#0F0C09"/>
<stop offset="1" stop-color="#0F0C09" stop-opacity="0.44"/>
</linearGradient>
<linearGradient id="paint3_linear_27_38" x1="33.5003" y1="15.007" x2="16.5003" y2="12.507" gradientUnits="userSpaceOnUse">
<stop stop-color="#0F0C09"/>
<stop offset="1" stop-color="#0F0C09" stop-opacity="0.44"/>
</linearGradient>
<clipPath id="clip0_27_38">
<rect width="40" height="40" fill="white" transform="translate(0 0.5)"/>
</clipPath>
</defs>
</svg>
