<svg width="180" height="55" viewBox="0 0 180 55" fill="none" xmlns="http://www.w3.org/2000/svg">
<g clip-path="url(#clip0_17_299)">
<path d="M32.1466 15.3589C30.4823 14.6101 28.6372 14.193 26.6918 14.193C24.2523 14.193 21.9671 14.8496 20.001 15.9974H19.9992C17.609 17.3903 15.6926 19.5073 14.55 22.0484C13.8013 23.7111 13.3841 25.5583 13.3841 27.5011C13.3841 29.4421 13.8013 31.2876 14.5483 32.9503C12.0072 31.8077 9.89021 29.8909 8.49775 27.5011V27.4993C7.34911 25.5332 6.69287 23.2476 6.69287 20.8081C6.69287 18.8666 7.10831 17.0215 7.85491 15.3589C9.88847 10.8357 14.3724 7.65476 19.6141 7.50519C19.7416 7.50216 19.8713 7.49999 20.001 7.49999C20.1307 7.49999 20.2599 7.50216 20.3875 7.50519C25.6292 7.65476 30.1135 10.8357 32.1466 15.3589Z" fill="url(#paint0_linear_17_299)"/>
<path d="M7.83628 39.6414C9.50066 40.3902 11.3458 40.8073 13.2911 40.8073C15.7306 40.8073 18.0158 40.1507 19.9819 39.0029H19.9837C22.3739 37.61 24.2903 35.493 25.4329 32.9519C26.1816 31.2892 26.5988 29.442 26.5988 27.4992C26.5988 25.5582 26.1816 23.7127 25.4346 22.05C27.9757 23.1926 30.0927 25.1094 31.4852 27.4992V27.5009C32.6338 29.4671 33.29 31.7527 33.29 34.1922C33.29 36.1337 32.8746 37.9788 32.128 39.6414C30.0944 44.1646 25.6105 47.3455 20.3688 47.4951C20.2413 47.4981 20.1116 47.5003 19.9819 47.5003C19.8522 47.5003 19.723 47.4981 19.5955 47.4951C14.3537 47.3455 9.86942 44.1646 7.83628 39.6414Z" fill="url(#paint1_linear_17_299)"/>
<path d="M7.91861 15.3562C7.16986 17.0206 6.75269 18.8657 6.75269 20.8111C6.75269 23.2506 7.40935 25.5358 8.55713 27.5019L8.55713 27.5036C9.95002 29.8938 12.067 31.8102 14.6081 32.9528C16.2708 33.7016 18.118 34.1188 20.0608 34.1188C22.0019 34.1188 23.8474 33.7016 25.51 32.9546C24.3674 35.4957 22.4506 37.6127 20.0608 39.0051L20.0591 39.0051C18.0929 40.1538 15.8073 40.81 13.3678 40.81C11.4264 40.81 9.58126 40.3946 7.91861 39.648C3.39539 37.6144 0.214487 33.1305 0.0649084 27.8888C0.0618814 27.7613 0.0597147 27.6316 0.0597147 27.5019C0.0597147 27.3722 0.0618814 27.2429 0.0649084 27.1154C0.214486 21.8737 3.39539 17.3894 7.91861 15.3562Z" fill="url(#paint2_linear_17_299)"/>
<path d="M32.1414 39.6538C32.8902 37.9894 33.3074 36.1443 33.3074 34.1989C33.3074 31.7594 32.6507 29.4742 31.5029 27.5081L31.5029 27.5064C30.11 25.1162 27.993 23.1997 25.4519 22.0572C23.7893 21.3084 21.942 20.8912 19.9993 20.8912C18.0582 20.8912 16.2127 21.3084 14.55 22.0554C15.6926 19.5143 17.6095 17.3973 19.9993 16.0049L20.001 16.0049C21.9671 14.8562 24.2527 14.2 26.6922 14.2C28.6337 14.2 30.4788 14.6154 32.1414 15.362C36.6647 17.3956 39.8456 21.8795 39.9952 27.1212C39.9982 27.2487 40.0003 27.3784 40.0003 27.5081C40.0003 27.6378 39.9982 27.7671 39.9952 27.8946C39.8456 33.1363 36.6647 37.6206 32.1414 39.6538Z" fill="url(#paint3_linear_17_299)"/>
</g>
<path d="M54 42V39.36C54.6133 39.3333 55.12 39.2533 55.52 39.12C55.9467 38.9867 56.2667 38.68 56.48 38.2C56.72 37.72 56.84 36.9467 56.84 35.88V20.56C56.84 19.84 56.8533 19.1467 56.88 18.48C56.9333 17.8133 56.9733 17.3067 57 16.96C56.5733 16.9867 56.04 17.0133 55.4 17.04C54.76 17.04 54.2933 17.0533 54 17.08V14C55.8933 13.9733 57.7867 13.96 59.68 13.96C61.5733 13.96 63.4667 13.9467 65.36 13.92C67.7067 13.8933 69.7467 14.16 71.48 14.72C73.2133 15.28 74.5467 16.1867 75.48 17.44C76.4133 18.6933 76.8533 20.3867 76.8 22.52C76.7733 23.64 76.4933 24.7067 75.96 25.72C75.4533 26.7333 74.68 27.6267 73.64 28.4C72.6267 29.1733 71.3333 29.7867 69.76 30.24C70.2667 30.4533 70.76 30.8 71.24 31.28C71.7467 31.76 72.1733 32.2667 72.52 32.8L74.4 35.6C74.9867 36.5067 75.5067 37.2267 75.96 37.76C76.4133 38.2933 76.8667 38.6933 77.32 38.96C77.7733 39.2 78.2933 39.3333 78.88 39.36V42H72.28C71.8 41.6533 71.32 41.16 70.84 40.52C70.3867 39.8533 69.8933 39.0933 69.36 38.24L66.4 33.44C66.0533 32.9067 65.7467 32.4533 65.48 32.08C65.24 31.7067 64.9867 31.3867 64.72 31.12C64.2933 31.12 63.9333 31.12 63.64 31.12C63.3467 31.12 63.0133 31.12 62.64 31.12V35.4C62.64 36.1467 62.6267 36.8533 62.6 37.52C62.5733 38.1867 62.5333 38.6933 62.48 39.04C62.7733 39.0133 63.1467 39 63.6 39C64.0533 38.9733 64.4933 38.96 64.92 38.96C65.3733 38.9333 65.6933 38.92 65.88 38.92V42H54ZM64.56 28.24C66.0533 28.24 67.2533 28.0267 68.16 27.6C69.0667 27.1467 69.72 26.48 70.12 25.6C70.5467 24.6933 70.76 23.56 70.76 22.2C70.76 20.92 70.56 19.92 70.16 19.2C69.76 18.4533 69.2533 17.9067 68.64 17.56C68.0533 17.1867 67.4533 16.96 66.84 16.88C66.2267 16.7733 65.72 16.72 65.32 16.72C64.76 16.72 64.28 16.7867 63.88 16.92C63.48 17.0533 63.1733 17.3467 62.96 17.8C62.7467 18.2533 62.64 18.9467 62.64 19.88V28.08C62.9333 28.1067 63.24 28.1467 63.56 28.2C63.88 28.2267 64.2133 28.24 64.56 28.24ZM92.1819 42C92.1285 41.6267 92.0885 41.32 92.0619 41.08C92.0619 40.8133 92.0485 40.5067 92.0219 40.16C91.1152 41.0667 90.1552 41.7067 89.1419 42.08C88.1285 42.4533 87.1019 42.64 86.0619 42.64C84.3552 42.64 83.0219 42.1333 82.0619 41.12C81.1019 40.1067 80.6219 38.84 80.6219 37.32C80.6219 36.04 80.9419 34.9467 81.5819 34.04C82.2485 33.1333 83.1152 32.4 84.1819 31.84C85.2752 31.2533 86.4752 30.8133 87.7819 30.52C89.1152 30.2 90.4485 30.0133 91.7819 29.96V27.88C91.7819 27.1867 91.6885 26.56 91.5019 26C91.3419 25.44 91.0485 25 90.6219 24.68C90.2219 24.36 89.6485 24.2133 88.9019 24.24C88.3952 24.2667 87.9019 24.3733 87.4219 24.56C86.9419 24.7467 86.5285 25.0133 86.1819 25.36C86.3952 25.6 86.5285 25.8667 86.5819 26.16C86.6352 26.4267 86.6619 26.6667 86.6619 26.88C86.6619 27.4133 86.4485 27.9733 86.0219 28.56C85.5952 29.12 84.9152 29.3867 83.9819 29.36C83.1819 29.3333 82.5685 29.0533 82.1419 28.52C81.7152 27.9867 81.5019 27.36 81.5019 26.64C81.5019 25.5733 81.8752 24.6533 82.6219 23.88C83.3952 23.08 84.4219 22.4667 85.7019 22.04C86.9819 21.5867 88.3952 21.36 89.9419 21.36C92.2885 21.36 94.1019 21.9733 95.3819 23.2C96.6885 24.4 97.3419 26.3333 97.3419 29C97.3419 29.9067 97.3419 30.68 97.3419 31.32C97.3419 31.96 97.3285 32.6 97.3019 33.24C97.3019 33.88 97.3019 34.6533 97.3019 35.56C97.3019 35.9333 97.2885 36.4667 97.2619 37.16C97.2352 37.8267 97.1952 38.4667 97.1419 39.08C97.5952 39.0267 98.0752 39 98.5819 39C99.0885 38.9733 99.4752 38.96 99.7419 38.96V42H92.1819ZM91.7419 32.8C90.9952 32.88 90.2885 33.0133 89.6219 33.2C88.9552 33.3867 88.3685 33.64 87.8619 33.96C87.3819 34.28 86.9952 34.6667 86.7019 35.12C86.4352 35.5733 86.3019 36.08 86.3019 36.64C86.3285 37.3867 86.5685 37.92 87.0219 38.24C87.4752 38.56 87.9952 38.72 88.5819 38.72C89.1952 38.72 89.7685 38.5867 90.3019 38.32C90.8352 38.0533 91.3152 37.7067 91.7419 37.28C91.7419 37.0133 91.7419 36.76 91.7419 36.52C91.7419 36.2533 91.7419 35.9867 91.7419 35.72C91.7419 35.24 91.7419 34.76 91.7419 34.28C91.7419 33.7733 91.7419 33.28 91.7419 32.8ZM109.01 42.12L102.69 28.24C102.396 27.5733 102.183 27.0667 102.05 26.72C101.943 26.3733 101.863 26.08 101.81 25.84C101.783 25.5733 101.73 25.28 101.65 24.96L100.17 25.04V22H109.53V24.56C108.97 24.5867 108.596 24.7467 108.41 25.04C108.223 25.3333 108.156 25.72 108.21 26.2C108.263 26.6533 108.383 27.1467 108.57 27.68L110.65 32.8C110.863 33.3067 111.076 33.8267 111.29 34.36C111.503 34.8933 111.716 35.4267 111.93 35.96H111.97C112.183 35.4 112.383 34.84 112.57 34.28C112.783 33.72 112.983 33.16 113.17 32.6L114.89 27.72C115.13 27.0533 115.343 26.52 115.53 26.12C115.743 25.72 115.97 25.3067 116.21 24.88L113.73 25.04V22H121.33V24.56C120.716 24.6667 120.17 25.0133 119.69 25.6C119.21 26.16 118.796 26.8 118.45 27.52C118.103 28.2133 117.823 28.8267 117.61 29.36L112.49 42.12H109.01ZM123.093 39.4C123.84 39.4 124.373 39.2533 124.693 38.96C125.013 38.6667 125.213 38.2533 125.293 37.72C125.4 37.16 125.453 36.5333 125.453 35.84V29.2C125.453 28.72 125.466 28.1733 125.493 27.56C125.52 26.92 125.56 26.3067 125.613 25.72C125.186 25.7467 124.68 25.7733 124.093 25.8C123.533 25.8 123.106 25.8133 122.813 25.84V22.8C124.04 22.8 125.08 22.7333 125.933 22.6C126.786 22.4667 127.453 22.3067 127.933 22.12C128.44 21.9333 128.786 21.76 128.973 21.6H131.133V35.56C131.133 35.9333 131.12 36.4667 131.093 37.16C131.066 37.8267 131.026 38.4667 130.973 39.08C131.4 39.0267 131.866 39 132.373 39C132.906 38.9733 133.306 38.96 133.573 38.96V42H123.093V39.4ZM128.093 18.44C127.186 18.44 126.44 18.12 125.853 17.48C125.266 16.84 124.973 16.0667 124.973 15.16C124.973 14.2533 125.28 13.48 125.893 12.84C126.506 12.2 127.226 11.88 128.053 11.88C128.906 11.88 129.613 12.2 130.173 12.84C130.76 13.48 131.053 14.2533 131.053 15.16C131.053 16.0667 130.786 16.84 130.253 17.48C129.72 18.12 129 18.44 128.093 18.44ZM144.779 52.84C142.486 52.84 140.672 52.5867 139.339 52.08C138.006 51.6 137.059 50.96 136.499 50.16C135.939 49.36 135.659 48.5067 135.659 47.6C135.659 47.04 135.779 46.48 136.019 45.92C136.259 45.36 136.646 44.8133 137.179 44.28C137.739 43.7733 138.499 43.3467 139.459 43C138.366 42.7067 137.592 42.24 137.139 41.6C136.712 40.9333 136.499 40.2267 136.499 39.48C136.499 38.7867 136.779 38.0133 137.339 37.16C137.899 36.28 138.912 35.6133 140.379 35.16C139.259 34.7067 138.339 34 137.619 33.04C136.899 32.08 136.512 30.92 136.459 29.56C136.406 27.96 136.806 26.5467 137.659 25.32C138.512 24.0667 139.632 23.0933 141.019 22.4C142.406 21.7067 143.859 21.36 145.379 21.36C146.072 21.36 146.872 21.4533 147.779 21.64C148.686 21.8267 149.472 22.1467 150.139 22.6C150.432 21.7733 150.806 21 151.259 20.28C151.739 19.5333 152.312 18.9333 152.979 18.48C153.646 18 154.392 17.76 155.219 17.76C156.126 17.76 156.806 18 157.259 18.48C157.739 18.9333 157.979 19.5467 157.979 20.32C157.979 20.64 157.899 21 157.739 21.4C157.606 21.7733 157.352 22.0933 156.979 22.36C156.632 22.6267 156.139 22.76 155.499 22.76C155.099 22.76 154.699 22.6133 154.299 22.32C153.899 22 153.659 21.6267 153.579 21.2C153.232 21.3067 152.886 21.6533 152.539 22.24C152.192 22.8267 151.992 23.3467 151.939 23.8C152.712 24.4667 153.299 25.24 153.699 26.12C154.099 27 154.299 27.9467 154.299 28.96C154.299 30.5067 153.859 31.88 152.979 33.08C152.126 34.2533 151.006 35.1867 149.619 35.88C148.259 36.5467 146.792 36.88 145.219 36.88C144.872 36.88 144.486 36.8667 144.059 36.84C143.632 36.7867 143.219 36.76 142.819 36.76C142.232 36.76 141.739 36.8667 141.339 37.08C140.939 37.2933 140.739 37.5867 140.739 37.96C140.739 38.4667 141.126 38.8133 141.899 39C142.672 39.1867 143.992 39.3333 145.859 39.44C147.912 39.5467 149.699 39.8133 151.219 40.24C152.766 40.64 153.966 41.28 154.819 42.16C155.672 43.04 156.099 44.2533 156.099 45.8C156.099 46.9467 155.766 47.9467 155.099 48.8C154.432 49.68 153.539 50.4133 152.419 51C151.326 51.6133 150.112 52.0667 148.779 52.36C147.446 52.68 146.112 52.84 144.779 52.84ZM145.939 50.08C147.832 50.08 149.259 49.7333 150.219 49.04C151.206 48.3467 151.699 47.6267 151.699 46.88C151.699 46.32 151.486 45.8533 151.059 45.48C150.632 45.1333 149.992 44.8533 149.139 44.64C148.312 44.4267 147.246 44.2933 145.939 44.24C145.352 44.1867 144.672 44.1467 143.899 44.12C143.126 44.0933 142.446 44.0267 141.859 43.92C141.459 44.24 141.152 44.64 140.939 45.12C140.726 45.6 140.606 46.0667 140.579 46.52C140.526 47.5867 140.979 48.44 141.939 49.08C142.926 49.7467 144.259 50.08 145.939 50.08ZM145.379 34.2C146.099 34.2 146.699 33.9733 147.179 33.52C147.686 33.0667 148.059 32.4933 148.299 31.8C148.566 31.1067 148.699 30.4 148.699 29.68C148.699 28.7467 148.579 27.8533 148.339 27C148.099 26.12 147.726 25.4133 147.219 24.88C146.739 24.32 146.112 24.04 145.339 24.04C144.272 24.04 143.446 24.52 142.859 25.48C142.272 26.44 141.979 27.5333 141.979 28.76C141.979 29.6933 142.112 30.5867 142.379 31.44C142.646 32.2667 143.032 32.9333 143.539 33.44C144.046 33.9467 144.659 34.2 145.379 34.2ZM169.33 42C169.277 41.6267 169.237 41.32 169.21 41.08C169.21 40.8133 169.197 40.5067 169.17 40.16C168.264 41.0667 167.304 41.7067 166.29 42.08C165.277 42.4533 164.25 42.64 163.21 42.64C161.504 42.64 160.17 42.1333 159.21 41.12C158.25 40.1067 157.77 38.84 157.77 37.32C157.77 36.04 158.09 34.9467 158.73 34.04C159.397 33.1333 160.264 32.4 161.33 31.84C162.424 31.2533 163.624 30.8133 164.93 30.52C166.264 30.2 167.597 30.0133 168.93 29.96V27.88C168.93 27.1867 168.837 26.56 168.65 26C168.49 25.44 168.197 25 167.77 24.68C167.37 24.36 166.797 24.2133 166.05 24.24C165.544 24.2667 165.05 24.3733 164.57 24.56C164.09 24.7467 163.677 25.0133 163.33 25.36C163.544 25.6 163.677 25.8667 163.73 26.16C163.784 26.4267 163.81 26.6667 163.81 26.88C163.81 27.4133 163.597 27.9733 163.17 28.56C162.744 29.12 162.064 29.3867 161.13 29.36C160.33 29.3333 159.717 29.0533 159.29 28.52C158.864 27.9867 158.65 27.36 158.65 26.64C158.65 25.5733 159.024 24.6533 159.77 23.88C160.544 23.08 161.57 22.4667 162.85 22.04C164.13 21.5867 165.544 21.36 167.09 21.36C169.437 21.36 171.25 21.9733 172.53 23.2C173.837 24.4 174.49 26.3333 174.49 29C174.49 29.9067 174.49 30.68 174.49 31.32C174.49 31.96 174.477 32.6 174.45 33.24C174.45 33.88 174.45 34.6533 174.45 35.56C174.45 35.9333 174.437 36.4667 174.41 37.16C174.384 37.8267 174.344 38.4667 174.29 39.08C174.744 39.0267 175.224 39 175.73 39C176.237 38.9733 176.624 38.96 176.89 38.96V42H169.33ZM168.89 32.8C168.144 32.88 167.437 33.0133 166.77 33.2C166.104 33.3867 165.517 33.64 165.01 33.96C164.53 34.28 164.144 34.6667 163.85 35.12C163.584 35.5733 163.45 36.08 163.45 36.64C163.477 37.3867 163.717 37.92 164.17 38.24C164.624 38.56 165.144 38.72 165.73 38.72C166.344 38.72 166.917 38.5867 167.45 38.32C167.984 38.0533 168.464 37.7067 168.89 37.28C168.89 37.0133 168.89 36.76 168.89 36.52C168.89 36.2533 168.89 35.9867 168.89 35.72C168.89 35.24 168.89 34.76 168.89 34.28C168.89 33.7733 168.89 33.28 168.89 32.8Z" fill="#0F0C09"/>
<defs>
<linearGradient id="paint0_linear_17_299" x1="14.4999" y1="14" x2="11.9999" y2="31" gradientUnits="userSpaceOnUse">
<stop stop-color="#0F0C09"/>
<stop offset="1" stop-color="#0F0C09" stop-opacity="0.44"/>
</linearGradient>
<linearGradient id="paint1_linear_17_299" x1="25.483" y1="41.0003" x2="27.983" y2="24.0003" gradientUnits="userSpaceOnUse">
<stop stop-color="#0F0C09"/>
<stop offset="1" stop-color="#0F0C09" stop-opacity="0.44"/>
</linearGradient>
<linearGradient id="paint2_linear_17_299" x1="6.55972" y1="33.003" x2="23.5597" y2="35.503" gradientUnits="userSpaceOnUse">
<stop stop-color="#0F0C09"/>
<stop offset="1" stop-color="#0F0C09" stop-opacity="0.44"/>
</linearGradient>
<linearGradient id="paint3_linear_17_299" x1="33.5003" y1="22.007" x2="16.5003" y2="19.507" gradientUnits="userSpaceOnUse">
<stop stop-color="#0F0C09"/>
<stop offset="1" stop-color="#0F0C09" stop-opacity="0.44"/>
</linearGradient>
<clipPath id="clip0_17_299">
<rect width="40" height="40" fill="white" transform="translate(0 7.5)"/>
</clipPath>
</defs>
</svg>
