<svg width="90" height="91" viewBox="0 0 90 91" fill="none" xmlns="http://www.w3.org/2000/svg">
<g clip-path="url(#clip0_17_306)">
<g clip-path="url(#clip1_17_306)">
<path d="M72.33 18.1288C68.5852 16.4441 64.4337 15.5055 60.0566 15.5055C54.5677 15.5055 49.4261 16.983 45.0023 19.5655H44.9984C39.6204 22.6995 35.3085 27.4628 32.7377 33.1802C31.053 36.9212 30.1143 41.0775 30.1143 45.4487C30.1143 49.8161 31.053 53.9685 32.7338 57.7095C27.0163 55.1387 22.2531 50.8258 19.1201 45.4487V45.4449C16.5356 41.0211 15.0591 35.8785 15.0591 30.3896C15.0591 26.0213 15.9938 21.8698 17.6737 18.1288C22.2492 7.95158 32.3379 0.794544 44.1318 0.457993C44.4187 0.451183 44.7105 0.446312 45.0023 0.446312C45.2941 0.446312 45.585 0.451183 45.8719 0.457993C57.6658 0.794544 67.7555 7.95158 72.33 18.1288Z" fill="url(#paint0_linear_17_306)"/>
<path d="M17.6316 72.7638C21.3765 74.4485 25.5279 75.3871 29.905 75.3871C35.3939 75.3871 40.5356 73.9096 44.9593 71.3271H44.9632C50.3412 68.1931 54.6531 63.4298 57.224 57.7123C58.9087 53.9714 59.8473 49.8151 59.8473 45.4438C59.8473 41.0765 58.9087 36.9241 57.2279 33.1831C62.9453 35.7539 67.7086 40.0668 70.8416 45.4438V45.4477C73.426 49.8715 74.9026 55.0141 74.9026 60.503C74.9026 64.8713 73.9678 69.0228 72.288 72.7638C67.7125 82.941 57.6237 90.098 45.8299 90.4346C45.5429 90.4414 45.2512 90.4463 44.9593 90.4463C44.6675 90.4463 44.3767 90.4414 44.0898 90.4346C32.2959 90.098 22.2062 82.941 17.6316 72.7638Z" fill="url(#paint1_linear_17_306)"/>
<path d="M17.8168 18.1231C16.1321 21.8679 15.1935 26.0194 15.1935 30.3965C15.1935 35.8854 16.671 41.027 19.2535 45.4508L19.2535 45.4547C22.3875 50.8327 27.1508 55.1446 32.8682 57.7154C36.6092 59.4001 40.7655 60.3388 45.1367 60.3388C49.5041 60.3388 53.6565 59.4001 57.3975 57.7193C54.8266 63.4368 50.5138 68.2 45.1367 71.3331L45.1328 71.3331C40.7091 73.9175 35.5665 75.394 30.0776 75.394C25.7092 75.394 21.5578 74.4593 17.8168 72.7795C7.63957 68.2039 0.482532 58.1152 0.14598 46.3213C0.13917 46.0344 0.134299 45.7426 0.134299 45.4508C0.134299 45.159 0.13917 44.8682 0.145979 44.5812C0.482531 32.7874 7.63957 22.6976 17.8168 18.1231Z" fill="url(#paint2_linear_17_306)"/>
<path d="M72.3182 72.7929C74.0029 69.0481 74.9415 64.8966 74.9415 60.5195C74.9415 55.0306 73.464 49.889 70.8815 45.4652L70.8815 45.4613C67.7475 40.0833 62.9843 35.7714 57.2668 33.2006C53.5258 31.5159 49.3695 30.5772 44.9983 30.5772C40.6309 30.5772 36.4785 31.5159 32.7375 33.1967C35.3084 27.4792 39.6212 22.716 44.9983 19.5829L45.0022 19.5829C49.426 16.9985 54.5685 15.522 60.0574 15.522C64.4258 15.522 68.5772 16.4567 72.3182 18.1365C82.4954 22.7121 89.6525 32.8008 89.989 44.5947C89.9958 44.8816 90.0007 45.1734 90.0007 45.4652C90.0007 45.757 89.9958 46.0478 89.989 46.3348C89.6525 58.1286 82.4954 68.2184 72.3182 72.7929Z" fill="url(#paint3_linear_17_306)"/>
</g>
</g>
<defs>
<linearGradient id="paint0_linear_17_306" x1="32.6248" y1="15.0713" x2="26.9998" y2="53.3213" gradientUnits="userSpaceOnUse">
<stop stop-color="white"/>
<stop offset="1" stop-color="white" stop-opacity="0.44"/>
</linearGradient>
<linearGradient id="paint1_linear_17_306" x1="57.3368" y1="75.8213" x2="62.9618" y2="37.5713" gradientUnits="userSpaceOnUse">
<stop stop-color="white"/>
<stop offset="1" stop-color="white" stop-opacity="0.44"/>
</linearGradient>
<linearGradient id="paint2_linear_17_306" x1="14.7593" y1="57.8283" x2="53.0093" y2="63.4533" gradientUnits="userSpaceOnUse">
<stop stop-color="white"/>
<stop offset="1" stop-color="white" stop-opacity="0.44"/>
</linearGradient>
<linearGradient id="paint3_linear_17_306" x1="75.3757" y1="33.0877" x2="37.1257" y2="27.4627" gradientUnits="userSpaceOnUse">
<stop stop-color="white"/>
<stop offset="1" stop-color="white" stop-opacity="0.44"/>
</linearGradient>
<clipPath id="clip0_17_306">
<rect width="90" height="90" fill="white" transform="translate(0 0.446289)"/>
</clipPath>
<clipPath id="clip1_17_306">
<rect width="90" height="90" fill="white" transform="translate(0 0.446289)"/>
</clipPath>
</defs>
</svg>
