<svg width="256" height="25" viewBox="0 0 256 25" fill="none" xmlns="http://www.w3.org/2000/svg">
<path d="M12 0.240967L14.6942 8.53276H23.4127L16.3593 13.6574L19.0534 21.9492L12 16.8246L4.94658 21.9492L7.64074 13.6574L0.587322 8.53276H9.30583L12 0.240967Z" fill="#E28F44"/>
<path d="M70 0.240967L72.6942 8.53276H81.4127L74.3593 13.6574L77.0534 21.9492L70 16.8246L62.9466 21.9492L65.6407 13.6574L58.5873 8.53276H67.3058L70 0.240967Z" fill="#E28F44"/>
<path d="M128 0.240967L130.694 8.53276H139.413L132.359 13.6574L135.053 21.9492L128 16.8246L120.947 21.9492L123.641 13.6574L116.587 8.53276H125.306L128 0.240967Z" fill="#E28F44"/>
<path d="M186 0.240967L188.694 8.53276H197.413L190.359 13.6574L193.053 21.9492L186 16.8246L178.947 21.9492L181.641 13.6574L174.587 8.53276H183.306L186 0.240967Z" fill="#E28F44"/>
<path d="M244 0.240967L246.694 8.53276H255.413L248.359 13.6574L251.053 21.9492L244 16.8246L236.947 21.9492L239.641 13.6574L232.587 8.53276H241.306L244 0.240967Z" fill="#E28F44"/>
</svg>
